<svg width="180" height="180" viewBox="0 0 180 180" fill="none" xmlns="http://www.w3.org/2000/svg">
<path d="M168.313 1.41402C164.974 1.67047 161.647 1.7987 158.346 1.7987C141.468 1.7987 124.584 1.79229 107.707 1.77305C107.104 1.76664 106.412 1.84357 105.636 1.99745C105.437 2.03591 105.303 2.15132 105.232 2.33724L104.713 3.74131C104.643 3.93365 104.54 4.10676 104.399 4.25422L103.675 5.04921C103.489 5.24796 103.431 5.48518 103.489 5.74804C103.598 6.26094 103.45 6.65203 103.034 6.92131C102.893 7.01106 102.822 7.13929 102.822 7.30598V8.2805C102.822 8.52413 102.7 8.678 102.463 8.74852C102.354 8.78058 102.277 8.8511 102.245 8.97291C102.188 9.17807 102.252 9.31913 102.45 9.39606C102.79 9.5307 102.931 9.78073 102.861 10.1526C102.816 10.409 102.662 10.6334 102.444 10.7617C101.861 11.1143 101.559 11.5695 101.54 12.1337C101.534 12.3965 101.399 12.5248 101.143 12.5248H100.861C100.515 12.5248 100.309 12.6915 100.239 13.0313C100.156 13.4352 100.265 13.7108 100.579 13.8711C100.803 13.9865 100.873 14.1596 100.79 14.3969C100.675 14.7238 100.643 15.0636 100.688 15.4291C96.848 15.0893 93.8929 15.0636 91.8353 15.3393C83.1113 16.4998 76.3872 20.5901 71.6694 27.5977C66.4196 35.4002 66.6312 46.8828 74.0924 53.2556C73.7206 53.1723 73.4066 53.1659 73.1566 53.2364C72.9322 53.3069 72.7656 53.4415 72.6502 53.6531C72.3489 54.2173 71.9963 54.6853 71.5861 55.0636C71.4771 55.1598 71.4066 55.3008 71.4002 55.4419C71.4002 55.5252 71.413 55.6021 71.4387 55.6727C71.5092 55.8714 71.3682 56.0894 71.1566 56.0958C70.2657 56.1471 69.7208 56.6151 69.5221 57.4935C69.4772 57.6922 69.3811 57.8589 69.2465 58.0064L68.0927 59.2309C67.9965 59.3271 67.8875 59.3591 67.7593 59.3271C67.6888 59.3143 67.6119 59.3079 67.5414 59.3079C67.426 59.3014 67.3042 59.3527 67.2209 59.4361L65.6953 60.9363C65.6248 61.0068 65.5992 61.0966 65.6312 61.1928C65.6504 61.2633 65.6568 61.3274 65.6568 61.3979C65.6568 61.5518 65.6056 61.68 65.4966 61.789L62.9646 64.3343C62.8813 64.4176 62.7852 64.4561 62.6762 64.4561H62.4006C62.2531 64.4561 62.1249 64.5074 62.0224 64.6164L60.3686 66.3026C60.3237 66.3474 60.266 66.3731 60.1955 66.3731C60.1378 66.3795 60.0737 66.3731 60.0032 66.3667C59.7789 66.3474 59.5866 66.418 59.4263 66.5782L56.5546 69.4697C56.4713 69.5467 56.3751 69.5851 56.2662 69.5851H56.0034C55.8559 69.5851 55.7277 69.6364 55.6252 69.739L52.7663 72.6048C52.6125 72.7587 52.433 72.8164 52.2215 72.7715C51.9715 72.7267 51.792 72.8036 51.6766 73.0152C51.5676 73.2011 51.5356 73.3998 51.5805 73.6114C51.6446 73.8999 51.651 74.1371 51.6061 74.3167C49.6254 74.2846 47.5037 74.1115 45.6768 74.618C42.7282 75.445 39.3758 77.4902 38.1643 80.4523C37.1259 82.9911 36.8438 85.9082 36.7926 88.633L36.4272 86.3186C36.3567 85.889 36.1836 85.8441 35.9016 86.1711L35.4593 86.684C35.3118 86.8571 35.126 86.9212 34.9016 86.8764C34.626 86.8187 34.4273 86.9341 34.3183 87.2162C34.2286 87.4534 34.0619 87.5559 33.8119 87.5303C33.1581 87.4598 32.8696 87.7483 32.9465 88.3958C32.985 88.6779 32.8632 88.819 32.5748 88.819H31.7222C31.5235 88.819 31.3505 88.8895 31.2094 89.0305L29.0749 91.1719C28.9339 91.3129 28.7608 91.3835 28.5621 91.3835H26.9788C26.8378 91.3835 26.7032 91.4668 26.6391 91.595C26.5429 91.7938 26.5109 91.9926 26.543 92.2041C26.6006 92.5952 26.434 92.7427 26.0494 92.6593C25.2609 92.4862 24.6328 92.7875 24.1648 93.5633C24.0366 93.7749 23.8123 93.9159 23.5623 93.9352C22.979 93.9864 22.5239 94.3134 22.1841 94.9225C22.0559 95.1597 21.8572 95.2495 21.5944 95.2046C21.2162 95.1405 20.9534 95.2815 20.806 95.6277C20.7162 95.8329 20.4919 95.9419 20.2804 95.8778C19.9663 95.7816 19.7291 95.8778 19.5817 96.1663C19.4855 96.3522 19.3381 96.4484 19.1266 96.4548C17.5433 96.5125 16.1587 97.1087 14.9793 98.2307C14.8319 98.3654 14.6588 98.4359 14.4601 98.4359H13.1332C13.1204 98.4359 13.1076 98.4359 13.0947 98.4359C12.723 98.4615 12.5114 98.5897 12.4602 98.827C12.4217 99.0065 12.255 99.1283 12.0755 99.1091C11.3512 99.0321 10.5884 99.1091 9.79999 99.3335C9.56282 99.404 9.37693 99.5322 9.2295 99.731C9.13335 99.8528 9.01156 99.9041 8.85131 99.8848C8.62055 99.8528 8.41543 99.9105 8.24236 100.064C8.03083 100.244 7.8193 100.423 7.60777 100.596C7.40906 100.77 7.1783 100.891 6.9219 100.968C5.60785 101.359 4.25534 101.558 2.87719 101.558C2.66566 101.558 2.49899 101.648 2.3772 101.827C2.26823 101.981 2.19772 102.148 2.15285 102.334C2.08234 102.629 1.95414 102.661 1.75543 102.43C1.71056 102.385 1.68492 102.328 1.6721 102.263C1.57595 101.872 1.42852 101.853 1.22981 102.199C1.1593 102.328 1.08879 102.462 1.01828 102.61C0.858026 102.988 0.74265 102.969 0.67214 102.565C0.56317 101.904 0.345224 101.609 0.00549316 101.686L0.0119094 13.2236C0.0119094 12.8389 0.152922 12.5119 0.434963 12.2427C4.71044 8.2228 9.28079 4.4145 14.1332 0.817773C14.8575 0.279225 15.7228 0.00995036 16.7164 0.00995036C65.9197 0.0227729 115.11 0.029182 164.288 0.0227708C166.153 0.0227708 167.115 -0.291378 168.313 1.41402Z" fill="#0780C3"/>
<path d="M168.313 1.40649L179.139 12.8314C179.607 13.3251 179.87 13.979 179.877 14.6586L179.992 28.9173L179.383 27.853C179.268 27.6479 179.223 27.4299 179.248 27.1991C179.351 26.3912 179.236 25.6604 178.902 25.0128C178.806 24.8269 178.755 24.6217 178.761 24.4101C178.819 21.1468 178.614 18.0566 178.146 15.133C178.063 14.6137 177.646 14.2098 177.127 14.1393C176.851 14.1008 176.608 13.9854 176.396 13.7995C175.46 12.9724 174.588 12.5685 173.255 12.8186C172.454 12.966 171.646 13.1199 170.839 13.2738C170.633 13.3122 170.448 13.3956 170.274 13.5238C169.858 13.8315 169.332 13.9213 168.704 13.7931C168.525 13.7546 168.371 13.6649 168.249 13.5302C168.063 13.3315 167.839 13.184 167.569 13.0814C167.275 12.9724 166.999 12.9917 166.736 13.1391C166.512 13.2738 166.352 13.4597 166.262 13.7097C166.191 13.8957 166.057 13.9726 165.858 13.9277C165.018 13.7546 164.255 13.729 163.57 13.8572C163.339 13.9021 163.172 14.0303 163.063 14.2483C162.941 14.4983 162.794 14.5176 162.621 14.2996C162.358 13.9726 162.006 13.7674 161.57 13.6777C161.461 13.6584 161.352 13.7354 161.339 13.8444C161.268 14.3573 160.974 14.556 160.461 14.447C159.711 14.2867 159.089 14.4342 158.595 14.883C158.448 15.0176 158.281 15.0882 158.083 15.1074C157.589 15.1523 157.128 15.0818 156.698 14.9022C156.519 14.8253 156.313 14.8253 156.128 14.8958C155.269 15.21 154.538 15.6395 153.942 16.1717C153.544 16.5243 153.179 16.4858 152.839 16.0563C152.737 15.928 152.589 15.8447 152.423 15.8254C151.814 15.7549 151.301 15.8896 150.884 16.223C150.724 16.3512 150.519 16.4025 150.32 16.3576C149.82 16.2486 149.41 16.3768 149.096 16.7423C148.961 16.8961 148.788 16.9795 148.583 16.9987C147.711 17.0757 146.897 17.0115 146.141 16.8128C145.442 16.6269 144.904 16.8256 144.525 17.4155C144.391 17.6334 144.122 17.736 143.872 17.6719C143.327 17.5244 142.878 17.6655 142.532 18.0822C142.365 18.281 142.102 18.3707 141.852 18.3066C141.09 18.1207 140.474 18.2746 139.994 18.7682C139.853 18.9157 139.641 18.9734 139.442 18.9221C139.173 18.8516 138.974 18.9413 138.846 19.1786C138.756 19.3517 138.615 19.4606 138.429 19.5119C137.513 19.7684 136.712 19.6594 136.032 19.185C135.904 19.0952 135.808 19.1208 135.737 19.2619C135.705 19.3196 135.667 19.3773 135.609 19.4222C135.449 19.5568 135.263 19.6017 135.051 19.5568C134.673 19.4735 134.41 19.6081 134.263 19.9607C134.205 20.1018 134.096 20.1723 133.949 20.1787C133.289 20.2108 132.75 20.5762 132.34 21.2879C132.231 21.4738 132.077 21.5443 131.866 21.493C131.5 21.3969 131.231 21.5251 131.064 21.8649C130.975 22.0508 130.789 22.1662 130.584 22.1598C129.648 22.1341 128.718 22.1213 127.802 22.1277C127.641 22.1277 127.488 22.1726 127.353 22.2688C127.257 22.3393 127.212 22.4291 127.218 22.5445C127.25 23.1343 126.898 23.7049 126.315 23.9934C125.956 24.1729 125.635 24.1216 125.359 23.8331C125.225 23.6921 125.058 23.628 124.86 23.6344C124.315 23.6536 124.02 23.9357 123.962 24.4807C123.956 24.5961 123.892 24.6666 123.783 24.6987C123.443 24.7884 123.295 25.0064 123.34 25.3462C123.372 25.577 123.295 25.7629 123.103 25.8976C122.77 26.1348 122.276 26.2566 121.629 26.2502C115.777 20.3069 108.796 16.6974 100.687 15.4215C100.642 15.0561 100.675 14.7163 100.79 14.3893C100.873 14.1521 100.803 13.979 100.578 13.8636C100.264 13.7033 100.155 13.4276 100.239 13.0237C100.309 12.6839 100.514 12.5172 100.86 12.5172H101.142C101.399 12.5172 101.533 12.389 101.54 12.1262C101.559 11.562 101.86 11.1068 102.444 10.7541C102.662 10.6259 102.815 10.4015 102.86 10.1451C102.931 9.7732 102.79 9.52317 102.45 9.38853C102.251 9.3116 102.187 9.17055 102.245 8.96539C102.277 8.84357 102.354 8.77305 102.463 8.74099C102.7 8.67047 102.822 8.5166 102.822 8.27297V7.29845C102.822 7.13176 102.892 7.00354 103.033 6.91378C103.45 6.64451 103.598 6.25342 103.489 5.74051C103.431 5.47765 103.489 5.24044 103.674 5.04169L104.399 4.24669C104.54 4.09923 104.642 3.92612 104.713 3.73379L105.232 2.32971C105.303 2.14379 105.437 2.02839 105.636 1.98992C106.411 1.83605 107.104 1.75911 107.706 1.76552C124.584 1.78476 141.468 1.79117 158.345 1.79117C161.647 1.79117 164.973 1.66295 168.313 1.40649Z" fill="#0072B1"/>
<path d="M179.993 28.9187L179.948 108.63C179.903 108.688 179.852 108.733 179.807 108.752C179.666 108.81 179.589 108.758 179.576 108.604C179.576 108.566 179.582 108.528 179.589 108.489C179.679 108.136 179.595 108.092 179.345 108.342C178.685 109.015 178.172 109.778 177.813 110.63C177.57 111.22 177.153 111.534 176.551 111.515C176.377 111.509 176.269 111.592 176.224 111.759C175.986 112.676 175.41 113.253 174.493 113.503C174.294 113.56 174.121 113.663 173.987 113.823C173.031 114.932 171.903 115.785 170.602 116.394C170.416 116.478 170.288 116.619 170.217 116.817C170.115 117.112 169.948 117.349 169.724 117.523C168.788 118.253 167.782 118.895 166.705 119.44C166.301 119.645 165.929 119.895 165.583 120.19C165.243 120.485 164.897 120.818 164.545 121.196C164.378 121.376 164.173 121.485 163.936 121.523C163.198 121.651 162.666 122.062 162.346 122.748C162.256 122.946 162.07 123.088 161.852 123.126C160.974 123.273 160.333 123.735 159.929 124.524C159.833 124.722 159.673 124.838 159.449 124.857C159.122 124.896 158.891 125.062 158.756 125.364C158.692 125.498 158.596 125.614 158.474 125.697C157.224 126.537 155.994 127.415 154.795 128.332C154.769 128.351 154.269 128.8 153.301 129.666C152.218 130.634 151.359 130.711 150.718 129.89C152.289 124.972 153.019 120.119 152.91 115.317C152.853 116.369 153.596 116.33 155.135 115.208C155.154 115.195 155.43 114.907 155.962 114.349C156.276 114.028 156.654 113.849 157.103 113.804C157.32 113.785 157.519 113.695 157.673 113.541C157.846 113.374 158.026 113.233 158.224 113.118C158.487 112.971 158.763 112.849 159.064 112.74C159.872 112.451 160.429 111.926 160.743 111.156C160.827 110.938 160.974 110.771 161.186 110.662C162.807 109.771 164.346 108.617 165.795 107.213C166.66 106.373 167.615 105.604 168.66 104.905C169.711 104.206 170.749 103.469 171.775 102.706C172.358 102.27 173.038 102.129 173.563 101.578C173.929 101.187 174.326 100.84 174.756 100.552C175.583 99.9877 176.397 99.3273 177.185 98.5708C177.692 98.0836 177.897 97.3014 178.159 96.6602C178.345 96.2115 178.441 95.6986 178.461 95.1151C178.557 91.9159 178.525 89.6848 178.371 88.4153C178.198 86.96 178.23 84.5558 178.467 81.1962C178.589 79.4331 178.441 75.8557 178.012 70.4766L177.897 53.4482C177.916 52.416 177.993 50.1208 178.14 46.5754C178.3 42.6132 178.294 37.7534 178.115 31.9897C178.083 31.0601 177.762 30.5985 177.147 30.592C176.922 30.5856 176.73 30.5087 176.57 30.3484L176.333 30.1112C176.198 29.9702 176.012 29.8932 175.813 29.8868C174.224 29.8483 172.743 30.2138 171.365 30.9895C171.179 31.0921 170.999 31.0921 170.814 30.9959C169.833 30.5023 169.173 30.6626 168.82 31.4768C168.724 31.7012 168.557 31.8038 168.314 31.791C166.397 31.6755 164.513 31.5409 162.929 32.8488C162.731 33.0091 162.506 33.0732 162.256 33.054C161.231 32.9706 160.295 33.0219 159.455 33.2143C158.859 33.3489 158.314 33.6566 157.827 34.1439C157.654 34.317 157.442 34.3811 157.199 34.3362C156.269 34.1759 155.442 34.3362 154.724 34.8171C154.558 34.9261 154.359 34.9774 154.167 34.9453C153.705 34.8748 153.308 35.0094 152.981 35.3364C152.808 35.5095 152.603 35.5864 152.359 35.58C151.513 35.548 150.789 35.9134 150.193 36.6635C150.019 36.8815 149.731 36.9777 149.455 36.9071C148.776 36.7212 148.212 36.8559 147.757 37.2982C147.558 37.4906 147.327 37.5675 147.058 37.5355C146.039 37.4008 145.206 37.7342 144.558 38.5484C144.424 38.7087 144.27 38.7408 144.084 38.6574C143.071 38.1894 142.161 38.3817 141.347 39.2344C141.219 39.3691 141.039 39.446 140.853 39.446H140.68C140.494 39.446 140.34 39.5101 140.212 39.6383L139.302 40.5423C139.167 40.6706 139.007 40.7347 138.821 40.7347C138.289 40.7283 137.77 40.8373 137.257 41.0488C137.09 41.1194 136.975 41.2348 136.917 41.4079C136.783 41.8118 136.507 41.9656 136.078 41.8695C135.847 41.8246 135.623 41.8374 135.398 41.9079L131.783 43.0876C131.764 43.094 131.751 43.0812 131.745 43.062C131.738 43.0043 131.7 42.9594 131.629 42.9273C131.463 42.844 131.405 42.8953 131.45 43.0748C131.546 43.4659 131.533 43.8441 131.411 44.2096C129.854 37.17 126.591 31.1819 121.63 26.2516C122.277 26.258 122.771 26.1362 123.104 25.899C123.296 25.7643 123.373 25.5784 123.341 25.3476C123.296 25.0078 123.444 24.7898 123.783 24.7001C123.892 24.668 123.956 24.5975 123.963 24.4821C124.02 23.9371 124.315 23.655 124.86 23.6358C125.059 23.6294 125.226 23.6935 125.36 23.8346C125.636 24.1231 125.956 24.1744 126.315 23.9948C126.899 23.7063 127.251 23.1357 127.219 22.5459C127.213 22.4305 127.258 22.3407 127.354 22.2702C127.488 22.174 127.642 22.1292 127.802 22.1292C128.719 22.1227 129.648 22.1356 130.584 22.1612C130.789 22.1676 130.975 22.0522 131.065 21.8663C131.232 21.5265 131.501 21.3983 131.866 21.4944C132.078 21.5457 132.232 21.4752 132.341 21.2893C132.751 20.5776 133.289 20.2122 133.95 20.1801C134.097 20.1737 134.206 20.1032 134.264 19.9621C134.411 19.6095 134.674 19.4749 135.052 19.5582C135.264 19.6031 135.45 19.5582 135.61 19.4236C135.667 19.3787 135.706 19.321 135.738 19.2633C135.809 19.1223 135.905 19.0966 136.033 19.1864C136.712 19.6608 137.514 19.7698 138.43 19.5134C138.616 19.4621 138.757 19.3531 138.847 19.18C138.975 18.9428 139.174 18.853 139.443 18.9235C139.642 18.9748 139.853 18.9171 139.994 18.7696C140.475 18.276 141.09 18.1221 141.853 18.308C142.103 18.3721 142.366 18.2824 142.533 18.0836C142.879 17.6669 143.327 17.5259 143.872 17.6733C144.122 17.7374 144.392 17.6349 144.526 17.4169C144.904 16.827 145.443 16.6283 146.141 16.8142C146.898 17.013 147.712 17.0771 148.584 17.0001C148.789 16.9809 148.962 16.8976 149.096 16.7437C149.411 16.3782 149.821 16.25 150.321 16.359C150.519 16.4039 150.725 16.3526 150.885 16.2244C151.301 15.891 151.814 15.7563 152.423 15.8269C152.59 15.8461 152.737 15.9294 152.84 16.0577C153.18 16.4872 153.545 16.5257 153.942 16.1731C154.539 15.6409 155.269 15.2114 156.128 14.8972C156.314 14.8267 156.519 14.8267 156.699 14.9036C157.128 15.0832 157.59 15.1537 158.083 15.1088C158.282 15.0896 158.449 15.0191 158.596 14.8844C159.09 14.4356 159.711 14.2882 160.461 14.4484C160.974 14.5574 161.269 14.3587 161.34 13.8458C161.352 13.7368 161.461 13.6599 161.57 13.6791C162.006 13.7689 162.359 13.974 162.622 14.301C162.795 14.519 162.942 14.4997 163.064 14.2497C163.173 14.0317 163.339 13.9035 163.57 13.8586C164.256 13.7304 165.019 13.756 165.859 13.9291C166.057 13.974 166.192 13.8971 166.262 13.7112C166.352 13.4611 166.512 13.2752 166.737 13.1405C167 12.9931 167.275 12.9738 167.57 13.0828C167.839 13.1854 168.064 13.3329 168.25 13.5316C168.371 13.6663 168.525 13.756 168.705 13.7945C169.333 13.9227 169.858 13.833 170.275 13.5252C170.448 13.397 170.634 13.3136 170.839 13.2752C171.647 13.1213 172.455 12.9674 173.256 12.82C174.589 12.5699 175.461 12.9739 176.397 13.8009C176.608 13.9868 176.852 14.1022 177.127 14.1407C177.647 14.2112 178.063 14.6151 178.147 15.1345C178.615 18.058 178.82 21.1482 178.762 24.4116C178.756 24.6231 178.807 24.8283 178.903 25.0142C179.236 25.6618 179.352 26.3927 179.249 27.2005C179.223 27.4313 179.268 27.6493 179.384 27.8544L179.993 28.9187Z" fill="#0069A4"/>
<path d="M177.898 53.4529L177.546 42.8294C177.539 42.4896 177.392 42.4126 177.11 42.605C176.95 42.714 176.802 42.6627 176.68 42.4575C176.559 42.2588 176.321 42.1626 176.091 42.2203C175.687 42.3357 175.27 42.3806 174.853 42.3485C174.629 42.3357 174.424 42.3806 174.225 42.4832C173.712 42.7589 173.168 42.932 172.597 43.0153C172.072 43.0922 171.546 43.2141 171.014 43.3872C170.283 43.6244 169.533 43.8167 168.758 43.9513C168.117 44.0667 167.482 44.2591 166.86 44.5348C166.27 44.7976 165.674 45.0413 165.078 45.2721C164.873 45.3554 164.662 45.3747 164.45 45.3426C163.944 45.2593 163.527 45.3811 163.2 45.708C163.033 45.8747 162.835 45.9773 162.604 46.0094C161.367 46.1953 160.155 46.2466 158.957 46.1504C158.918 46.144 158.88 46.1504 158.841 46.1697C158.758 46.2081 158.719 46.2594 158.732 46.3235C158.764 46.4838 158.707 46.6056 158.559 46.689C157.732 47.157 156.886 47.4775 156.021 47.6378C155.829 47.6763 155.662 47.7661 155.521 47.9007C154.591 48.7919 153.463 49.2407 152.149 49.2342C151.938 49.2342 151.771 49.3176 151.649 49.4907C151.451 49.7664 151.181 49.8882 150.842 49.8625C150.681 49.8433 150.54 49.8946 150.425 50.0164L150.226 50.2088C150.053 50.3819 149.842 50.478 149.592 50.4909C149.342 50.5037 149.137 50.6063 148.963 50.7986C148.797 50.9845 148.585 51.0871 148.335 51.1063L146.431 51.2281C146.239 51.241 146.073 51.3115 145.938 51.4461C145.124 52.2411 144.156 52.7925 143.041 53.0938C142.874 53.1387 142.739 53.2349 142.63 53.3759C141.977 54.2607 141.124 54.5748 140.073 54.3184C139.855 54.2671 139.624 54.3633 139.509 54.5556C139.13 55.1903 138.618 55.5493 137.977 55.6455C137.765 55.6776 137.605 55.7802 137.483 55.9597C137.143 56.479 136.708 56.7162 136.182 56.6585C135.983 56.6393 135.784 56.6585 135.599 56.729L132.124 57.9664C132.477 53.408 132.24 48.8239 131.413 44.2142C131.535 43.8488 131.547 43.4705 131.451 43.0794C131.406 42.8999 131.464 42.8486 131.631 42.932C131.701 42.964 131.74 43.0089 131.746 43.0666C131.753 43.0858 131.765 43.0986 131.785 43.0922L135.4 41.9126C135.624 41.842 135.849 41.8292 136.079 41.8741C136.509 41.9703 136.784 41.8164 136.919 41.4125C136.977 41.2394 137.092 41.124 137.259 41.0535C137.772 40.8419 138.291 40.7329 138.823 40.7393C139.009 40.7393 139.169 40.6752 139.304 40.547L140.214 39.643C140.342 39.5147 140.496 39.4506 140.682 39.4506H140.855C141.041 39.4506 141.22 39.3737 141.348 39.2391C142.162 38.3864 143.073 38.194 144.085 38.662C144.271 38.7454 144.425 38.7133 144.56 38.5531C145.207 37.7388 146.04 37.4054 147.06 37.5401C147.329 37.5721 147.56 37.4952 147.758 37.3029C148.213 36.8605 148.778 36.7258 149.457 36.9118C149.733 36.9823 150.021 36.8861 150.194 36.6681C150.79 35.918 151.515 35.5526 152.361 35.5846C152.604 35.591 152.809 35.5141 152.983 35.341C153.309 35.014 153.707 34.8794 154.168 34.9499C154.361 34.982 154.559 34.9307 154.726 34.8217C155.444 34.3408 156.271 34.1806 157.2 34.3408C157.444 34.3857 157.655 34.3216 157.828 34.1485C158.316 33.6612 158.861 33.3535 159.457 33.2189C160.296 33.0265 161.232 32.9752 162.258 33.0586C162.508 33.0778 162.732 33.0137 162.931 32.8534C164.514 31.5455 166.399 31.6802 168.315 31.7956C168.559 31.8084 168.726 31.7058 168.822 31.4814C169.174 30.6672 169.834 30.5069 170.815 31.0006C171.001 31.0967 171.181 31.0967 171.366 30.9942C172.745 30.2184 174.225 29.853 175.815 29.8914C176.014 29.8978 176.2 29.9748 176.334 30.1158L176.571 30.353C176.732 30.5133 176.924 30.5903 177.148 30.5967C177.764 30.6031 178.084 31.0647 178.116 31.9943C178.296 37.7581 178.302 42.6178 178.142 46.58C177.994 50.1254 177.917 52.4206 177.898 53.4529Z" fill="#005D90"/>
<path d="M100.015 45.4507C99.855 45.5789 99.6306 45.4507 99.3358 45.0596C99.2012 44.8865 99.0409 44.8352 98.8422 44.9057C98.1563 45.1429 97.6884 45.5853 97.4384 46.2329C97.1628 46.9509 96.7077 47.5279 96.0859 47.9575C96.0026 48.0152 95.9513 48.0985 95.932 48.1947C95.9128 48.2781 95.9064 48.3614 95.9256 48.4383C95.9641 48.5794 95.9256 48.7268 95.8231 48.8294L93.118 51.5991C92.977 51.7466 92.804 51.8043 92.6053 51.785C92.5091 51.7722 92.4065 51.7786 92.3104 51.8043C92.0989 51.8491 92.0219 51.9774 92.0668 52.1889C92.0989 52.3108 92.0989 52.439 92.0796 52.5672C92.054 52.7275 91.9642 52.8749 91.8232 52.9711C91.2527 53.3558 90.7463 53.8751 90.3041 54.5226C90.2015 54.6701 90.1374 54.8368 90.1117 55.0163C90.0669 55.3753 89.8618 55.5677 89.4964 55.5933C89.2464 55.6126 89.0156 55.7023 88.8105 55.8754C88.4836 56.1383 88.2977 56.4653 88.2465 56.8435C88.2208 57.0615 88.1311 57.2474 87.9708 57.4077L79.3814 65.9796C79.2981 66.0629 79.2596 66.1591 79.2596 66.2745V66.6079C79.2596 66.7554 79.2019 66.8836 79.0929 66.9862L77.8366 68.1338C77.6891 68.2684 77.5161 68.3646 77.3174 68.4095C76.6059 68.5826 76.17 69.0185 76.0226 69.7045C75.9777 69.9161 75.8815 70.0956 75.7341 70.2559L74.529 71.551C74.4649 71.6215 74.4008 71.6151 74.3431 71.5446C74.2983 71.4869 74.2854 71.4292 74.3047 71.3587C74.4136 71.006 74.3495 70.9676 74.1124 71.2561C73.7919 71.6343 73.4393 71.9805 73.0547 72.3075C72.9009 72.4422 72.8239 72.6089 72.8239 72.814C72.8304 73.3333 72.5996 73.7308 72.1317 73.9937C71.8689 74.1412 71.8689 74.2822 72.1445 74.4168C72.3176 74.5002 72.4009 74.6028 72.4073 74.7246C65.5037 75.6542 58.5745 75.5196 51.6068 74.3207C51.6517 74.1411 51.6453 73.9039 51.5812 73.6154C51.5363 73.4039 51.5683 73.2051 51.6773 73.0192C51.7927 72.8076 51.9722 72.7307 52.2222 72.7756C52.4337 72.8204 52.6132 72.7627 52.767 72.6089L55.6259 69.743C55.7284 69.6404 55.8566 69.5891 56.0041 69.5891H56.2669C56.3759 69.5891 56.472 69.5507 56.5553 69.4737L59.427 66.5823C59.5873 66.422 59.7796 66.3515 60.0039 66.3707C60.0744 66.3771 60.1385 66.3835 60.1962 66.3771C60.2667 66.3771 60.3244 66.3514 60.3693 66.3066L62.0231 64.6204C62.1256 64.5114 62.2538 64.4601 62.4013 64.4601H62.6769C62.7859 64.4601 62.882 64.4217 62.9653 64.3383L65.4973 61.793C65.6063 61.684 65.6576 61.5558 65.6576 61.4019C65.6576 61.3314 65.6511 61.2673 65.6319 61.1968C65.5999 61.1006 65.6255 61.0109 65.696 60.9403L67.2216 59.4401C67.3049 59.3567 67.4267 59.3055 67.5421 59.3119C67.6126 59.3119 67.6895 59.3183 67.76 59.3311C67.8882 59.3632 67.9972 59.3311 68.0934 59.2349L69.2472 58.0104C69.3818 57.8629 69.4779 57.6962 69.5228 57.4975C69.7215 56.6191 70.2664 56.1511 71.1574 56.0998C71.3689 56.0934 71.5099 55.8754 71.4394 55.6767C71.4138 55.6061 71.4009 55.5292 71.4009 55.4459C71.4073 55.3048 71.4778 55.1638 71.5868 55.0676C71.9971 54.6893 72.3496 54.2213 72.6509 53.6571C72.7663 53.4455 72.9329 53.3109 73.1573 53.2404C73.4073 53.1699 73.7214 53.1763 74.0931 53.2596C76.0866 54.8176 78.3173 56.0742 80.7788 57.0166C81.0416 57.1192 81.298 56.8692 81.2082 56.6063C78.9327 49.7911 81.4775 41.4116 89.2592 39.9498C93.3937 39.174 97.8935 42.0527 100.015 45.4507Z" fill="#0072B1"/>
<path d="M177.896 53.4449L178.012 70.4733L178.005 92.3358C178.005 92.6627 177.864 92.7397 177.589 92.5602C177.428 92.464 177.339 92.3229 177.32 92.1434C177.275 91.778 177.108 91.7074 176.82 91.9383C175.352 93.1308 174.115 94.3745 173.108 95.6696C172.076 96.9967 170.499 97.0352 169.313 98.2021C168.794 98.7086 168.185 99.215 167.487 99.7215C167.031 100.049 166.596 100.395 166.179 100.76C165.762 101.126 165.32 101.465 164.865 101.786C162.794 103.248 160.814 104.818 158.936 106.492C158.775 106.639 158.666 106.812 158.602 107.011C158.391 107.704 157.878 108.133 157.077 108.3C156.923 108.332 156.782 108.409 156.666 108.524L155.083 110.101C154.942 110.242 154.743 110.326 154.538 110.319L152.724 110.274C151.718 99.6446 147.423 90.7265 139.84 83.5267C135.949 79.8338 131.635 76.923 126.892 74.7945C126.642 74.6791 126.546 74.3649 126.7 74.1341C129.821 69.3449 131.629 63.953 132.123 57.9585L135.597 56.7211C135.783 56.6506 135.981 56.6313 136.18 56.6506C136.706 56.7083 137.142 56.4711 137.481 55.9518C137.603 55.7722 137.763 55.6697 137.975 55.6376C138.616 55.5414 139.129 55.1824 139.507 54.5477C139.622 54.3553 139.853 54.2592 140.071 54.3105C141.122 54.5669 141.975 54.2528 142.629 53.368C142.737 53.227 142.872 53.1308 143.039 53.0859C144.154 52.7846 145.122 52.2332 145.936 51.4382C146.071 51.3036 146.237 51.2331 146.43 51.2202L148.333 51.0984C148.583 51.0792 148.795 50.9766 148.962 50.7907C149.135 50.5983 149.34 50.4958 149.59 50.4829C149.84 50.4701 150.051 50.3739 150.224 50.2008L150.423 50.0085C150.538 49.8867 150.679 49.8354 150.84 49.8546C151.179 49.8803 151.449 49.7585 151.647 49.4828C151.769 49.3097 151.936 49.2263 152.147 49.2263C153.461 49.2327 154.59 48.7839 155.519 47.8928C155.66 47.7581 155.827 47.6684 156.019 47.6299C156.884 47.4696 157.73 47.1491 158.557 46.681C158.705 46.5977 158.763 46.4759 158.73 46.3156C158.718 46.2515 158.756 46.2002 158.839 46.1617C158.878 46.1425 158.916 46.1361 158.955 46.1425C160.153 46.2387 161.365 46.1874 162.602 46.0015C162.833 45.9694 163.032 45.8668 163.198 45.7001C163.525 45.3731 163.942 45.2513 164.448 45.3347C164.66 45.3667 164.871 45.3475 165.076 45.2642C165.673 45.0334 166.269 44.7897 166.858 44.5269C167.48 44.2512 168.115 44.0588 168.756 43.9434C169.531 43.8088 170.281 43.6165 171.012 43.3792C171.544 43.2061 172.07 43.0843 172.595 43.0074C173.166 42.924 173.711 42.7509 174.223 42.4752C174.422 42.3727 174.627 42.3278 174.852 42.3406C175.268 42.3727 175.685 42.3278 176.089 42.2124C176.32 42.1547 176.557 42.2509 176.679 42.4496C176.8 42.6548 176.948 42.7061 177.108 42.5971C177.39 42.4047 177.537 42.4817 177.544 42.8215L177.896 53.4449Z" fill="#004D77"/>
<path d="M100.015 45.4525C103.29 50.4405 102.566 55.0951 99.5661 60.0895C94.1047 69.1614 82.4065 73.4506 72.4068 74.7264C72.4004 74.6046 72.3171 74.502 72.144 74.4187C71.8684 74.284 71.8684 74.143 72.1312 73.9955C72.5991 73.7327 72.8299 73.3352 72.8235 72.8159C72.8235 72.6107 72.9004 72.444 73.0542 72.3094C73.4389 71.9824 73.7914 71.6362 74.1119 71.2579C74.3491 70.9694 74.4132 71.0079 74.3042 71.3605C74.285 71.431 74.2978 71.4887 74.3427 71.5464C74.4004 71.6169 74.4644 71.6234 74.5285 71.5528L75.7336 70.2578C75.8811 70.0975 75.9772 69.918 76.0221 69.7064C76.1695 69.0204 76.6054 68.5844 77.3169 68.4113C77.5156 68.3664 77.6887 68.2703 77.8361 68.1356L79.0925 66.988C79.2014 66.8854 79.2591 66.7572 79.2591 66.6097V66.2764C79.2591 66.161 79.2976 66.0648 79.3809 65.9814L87.9703 57.4096C88.1306 57.2493 88.2203 57.0634 88.246 56.8454C88.2973 56.4671 88.4831 56.1401 88.8101 55.8773C89.0152 55.7042 89.2459 55.6144 89.4959 55.5952C89.8613 55.5695 90.0664 55.3772 90.1113 55.0182C90.1369 54.8386 90.201 54.672 90.3036 54.5245C90.7459 53.877 91.2523 53.3576 91.8228 52.973C91.9638 52.8768 92.0535 52.7293 92.0792 52.5691C92.0984 52.4408 92.0984 52.3126 92.0663 52.1908C92.0215 51.9792 92.0984 51.851 92.3099 51.8061C92.4061 51.7805 92.5086 51.7741 92.6048 51.7869C92.8035 51.8061 92.9766 51.7484 93.1176 51.601L95.8226 48.8313C95.9252 48.7287 95.9636 48.5812 95.9252 48.4402C95.9059 48.3633 95.9124 48.2799 95.9316 48.1966C95.9508 48.1004 96.0021 48.017 96.0854 47.9593C96.7072 47.5298 97.1623 46.9528 97.4379 46.2347C97.6879 45.5872 98.1559 45.1448 98.8417 44.9076C99.0404 44.8371 99.2007 44.8883 99.3353 45.0614C99.6302 45.4525 99.8545 45.5808 100.015 45.4525Z" fill="#0069A4"/>
<path d="M178.014 70.5022C178.443 75.8813 178.591 79.4588 178.469 81.2219C178.232 84.5814 178.2 86.9856 178.373 88.4409C178.527 89.7104 178.559 91.9415 178.463 95.1407C178.443 95.7242 178.347 96.2371 178.161 96.6859C177.898 97.327 177.693 98.1092 177.187 98.5964C176.398 99.353 175.584 100.013 174.758 100.578C174.328 100.866 173.931 101.212 173.565 101.603C173.04 102.155 172.36 102.296 171.777 102.732C170.751 103.495 169.713 104.232 168.662 104.931C167.617 105.63 166.662 106.399 165.796 107.239C164.348 108.643 162.809 109.797 161.188 110.688C160.976 110.797 160.829 110.964 160.745 111.182C160.431 111.951 159.873 112.477 159.066 112.765C158.765 112.874 158.489 112.996 158.226 113.144C158.027 113.259 157.848 113.4 157.675 113.567C157.521 113.721 157.322 113.81 157.104 113.83C156.656 113.874 156.277 114.054 155.963 114.375C155.431 114.932 155.156 115.221 155.136 115.234C153.598 116.356 152.855 116.394 152.912 115.343L152.726 110.303L154.54 110.348C154.745 110.355 154.944 110.271 155.085 110.13L156.668 108.553C156.784 108.438 156.925 108.361 157.079 108.329C157.88 108.162 158.393 107.732 158.604 107.04C158.668 106.841 158.777 106.668 158.938 106.521C160.816 104.847 162.796 103.277 164.867 101.815C165.322 101.494 165.764 101.155 166.181 100.789C166.598 100.424 167.033 100.077 167.489 99.7504C168.187 99.244 168.796 98.7375 169.315 98.231C170.501 97.0641 172.078 97.0256 173.11 95.6985C174.117 94.4034 175.354 93.1597 176.822 91.9672C177.11 91.7364 177.277 91.8069 177.322 92.1723C177.341 92.3518 177.43 92.4929 177.591 92.5891C177.866 92.7686 178.007 92.6916 178.007 92.3647L178.014 70.5022Z" fill="#005D90"/>
<path d="M36.7935 88.6504C36.4666 96.4144 39.5434 102.415 46.0303 106.66C46.5431 106.999 47.3572 107.314 48.4661 107.602C46.5495 107.448 45.9534 108.044 46.6777 109.391C44.2163 108.121 42.4535 106.698 39.5434 106.563C36.4089 106.416 33.2039 106.487 29.9283 106.769C29.3771 106.814 28.8579 106.948 28.3771 107.166C22.1786 109.949 17.0378 114.366 15.6084 121.284C15.1917 120.841 15.2494 120.284 15.775 119.617C15.8327 119.546 15.8391 119.444 15.7814 119.367C15.743 119.309 15.6917 119.264 15.634 119.232C15.4353 119.123 15.2879 119.168 15.1917 119.373C15.0443 119.687 14.8007 119.809 14.461 119.739C14.1854 119.681 13.9802 119.784 13.8456 120.034C13.6597 120.386 13.3777 120.508 12.9995 120.399C12.7623 120.335 12.5316 120.54 12.5764 120.784C12.6982 121.47 12.4098 121.771 11.7111 121.688C11.3906 121.643 11.2624 121.784 11.3265 122.098C11.4098 122.508 11.2624 122.797 10.8778 122.97C10.6855 123.053 10.615 123.201 10.6663 123.406C10.7111 123.579 10.7047 123.739 10.6342 123.887C10.5188 124.13 10.3265 124.252 10.0573 124.252H9.1535C8.833 124.252 8.69839 124.412 8.74326 124.727C8.8971 125.823 8.41635 126.528 7.2946 126.842C6.55745 127.054 6.18566 127.548 6.18566 128.317V129.279C6.18566 129.567 6.04465 129.74 5.7626 129.804C5.15365 129.945 4.65367 130.285 4.27548 130.817C3.99985 131.208 3.98702 131.612 4.24342 132.016C4.30112 132.106 4.28189 132.177 4.18574 132.221C3.7755 132.407 3.41012 132.754 3.08962 133.26C2.98706 133.42 2.98065 133.587 3.07039 133.754C3.48704 134.555 3.40371 135.324 2.8204 136.055C2.6922 136.216 2.62169 136.395 2.60246 136.6C2.35888 139.658 2.24351 143.133 2.25633 147.031C2.25633 147.076 2.2371 147.108 2.20505 147.128C2.16018 147.153 2.10249 147.166 2.0448 147.172C2.01275 147.172 1.99351 147.185 1.99992 147.217C2.09607 147.98 2.06403 148.756 1.9166 149.545C1.75635 150.365 1.69865 151.186 1.73711 152.013C1.85249 154.366 1.6602 156.847 1.1538 159.444C1.13457 159.514 1.10252 159.578 1.05765 159.63C0.961498 159.726 0.858944 159.726 0.743564 159.63C0.711514 159.598 0.660228 159.617 0.647408 159.662C0.487157 160.361 0.461524 161.079 0.564084 161.809C0.583314 161.963 0.435879 162.092 0.288449 162.047C0.205118 162.021 0.10897 161.957 0 161.861L0.00640649 101.704C0.346137 101.627 0.564083 101.922 0.673053 102.582C0.743563 102.986 0.858939 103.005 1.01919 102.627C1.0897 102.479 1.16021 102.345 1.23072 102.217C1.42943 101.87 1.57686 101.89 1.67301 102.281C1.68583 102.345 1.71148 102.403 1.75635 102.447C1.95506 102.678 2.08325 102.646 2.15376 102.351C2.19863 102.165 2.26914 101.999 2.37811 101.845C2.4999 101.665 2.66657 101.576 2.8781 101.576C4.25625 101.576 5.60876 101.377 6.92282 100.986C7.17922 100.909 7.40997 100.787 7.60868 100.614C7.82021 100.441 8.03175 100.261 8.24328 100.082C8.41635 99.9278 8.62146 99.8701 8.85223 99.9022C9.01248 99.9214 9.13426 99.8701 9.23041 99.7483C9.37784 99.5495 9.56373 99.4213 9.8009 99.3508C10.5893 99.1264 11.3521 99.0495 12.0765 99.1264C12.2559 99.1456 12.4226 99.0238 12.4611 98.8443C12.5123 98.6071 12.7239 98.4789 13.0957 98.4532C13.1085 98.4532 13.1213 98.4532 13.1341 98.4532H14.461C14.6597 98.4532 14.8328 98.3827 14.9802 98.248C16.1596 97.1261 17.5442 96.5298 19.1275 96.4721C19.339 96.4657 19.4864 96.3695 19.5826 96.1836C19.73 95.8951 19.9672 95.7989 20.2813 95.8951C20.4928 95.9592 20.7172 95.8502 20.8069 95.6451C20.9543 95.2989 21.2171 95.1578 21.5953 95.2219C21.8581 95.2668 22.0569 95.177 22.1851 94.9398C22.5248 94.3308 22.9799 94.0038 23.5632 93.9525C23.8132 93.9332 24.0375 93.7922 24.1657 93.5806C24.6337 92.8049 25.2619 92.5035 26.0503 92.6766C26.4349 92.76 26.6016 92.6125 26.5439 92.2214C26.5118 92.0099 26.5439 91.8111 26.64 91.6124C26.7041 91.4841 26.8387 91.4008 26.9797 91.4008H28.563C28.7617 91.4008 28.9348 91.3303 29.0758 91.1892L31.2104 89.0479C31.3514 88.9068 31.5244 88.8363 31.7232 88.8363H32.5757C32.8641 88.8363 32.9859 88.6952 32.9475 88.4131C32.8705 87.7656 33.159 87.4771 33.8128 87.5476C34.0628 87.5733 34.2295 87.4707 34.3192 87.2335C34.4282 86.9514 34.6269 86.836 34.9025 86.8937C35.1269 86.9386 35.3128 86.8744 35.4602 86.7013L35.9025 86.1884C36.1845 85.8615 36.3576 85.9063 36.4281 86.3359L36.7935 88.6504Z" fill="#0072B1"/>
<path d="M58.7039 115.313C58.5757 115.057 58.4924 114.807 58.4475 114.57C58.4154 114.377 58.4731 114.224 58.6334 114.102L59.8449 113.178C59.9795 113.076 60.0564 112.916 60.05 112.749C60.0308 112.23 60.2808 111.903 60.8 111.768C61.5756 111.569 62.1845 111.069 62.6204 110.268C62.7166 110.082 62.864 109.979 63.0691 109.947C63.3383 109.902 63.5947 109.806 63.8383 109.659C69.9599 109.563 75.9789 108.607 81.8889 106.793C82.1069 106.722 82.2735 106.786 82.3953 106.979C84.876 110.909 88.4976 113.454 93.2731 114.615C93.5359 114.672 93.6769 114.57 93.6962 114.3C93.8372 112.409 94.0102 110.274 94.209 107.889C94.4013 105.568 94.8628 103.703 95.5871 102.292C97.8114 97.9773 102.805 95.727 107.497 97.3683C111.228 98.6698 113.708 101.568 114.939 106.062C115.394 107.729 115.452 109.28 115.125 110.723C112.67 121.449 99.9139 124.667 90.5745 124.123C79.7864 123.501 68.4984 119.744 58.7039 115.313Z" fill="#004D77"/>
<path d="M48.4651 107.579C53.465 108.977 58.5866 109.669 63.8364 109.656C63.5928 109.804 63.3364 109.9 63.0672 109.945C62.862 109.977 62.7146 110.079 62.6185 110.265C62.1826 111.067 61.5736 111.567 60.798 111.766C60.2788 111.9 60.0288 112.227 60.048 112.747C60.0544 112.913 59.9775 113.074 59.8429 113.176L58.6314 114.099C58.4712 114.221 58.4135 114.375 58.4455 114.567C58.4904 114.805 58.5737 115.055 58.7019 115.311L46.6767 109.368C45.9524 108.021 46.5486 107.425 48.4651 107.579Z" fill="#005D90"/>
<path d="M179.947 108.617V119.542C179.768 118.927 179.511 118.593 179.184 118.542C178.96 118.51 178.793 118.58 178.671 118.766C178.255 119.407 177.851 120.055 177.454 120.709C177.031 121.388 176.39 121.619 175.672 121.818C175.46 121.876 175.325 122.01 175.268 122.222C175.075 122.857 174.627 123.228 173.922 123.337C173.678 123.37 173.454 123.459 173.249 123.594C172.287 124.235 171.364 124.921 170.479 125.652C169.588 126.396 168.659 127.075 167.704 127.684C165.89 128.845 164.121 130.114 162.39 131.499C161.967 131.839 161.749 132.358 161.32 132.595C160.685 132.935 160.076 133.333 159.493 133.775C158.903 134.23 158.288 134.641 157.653 135C157.07 135.327 156.538 135.756 156.044 136.282C155.589 136.763 155.07 137.186 154.48 137.551C153.006 138.455 151.922 139.321 151.237 140.161C150.461 141.103 149.673 141.808 148.859 142.264C148.685 142.36 148.544 142.488 148.429 142.648C147.48 143.918 146.384 144.854 145.141 145.463C144.942 145.559 144.775 145.706 144.647 145.892C144.013 146.816 143.243 147.559 142.346 148.123C141.275 148.797 140.808 149.726 139.647 150.355C139.109 150.643 138.609 151.079 138.147 151.656C137.75 152.163 137.327 152.675 136.878 153.208C136.679 153.438 136.436 153.586 136.135 153.656C135.09 153.9 134.289 154.721 133.731 156.118C133.648 156.324 133.519 156.49 133.346 156.625L132.442 157.311C132.282 157.433 132.148 157.587 132.045 157.76C131.628 158.478 131.103 159.08 130.475 159.568C130.09 159.869 129.77 160.234 129.507 160.67C129.244 161.106 128.943 161.523 128.603 161.914C127.757 162.876 126.968 163.831 126.244 164.786C125.738 165.46 125.141 166.114 124.468 166.755C123.821 167.364 123.193 168.018 122.584 168.729C120.244 171.441 117.892 173.916 115.52 176.16C115.238 176.429 114.994 176.731 114.789 177.058C114.398 177.686 113.828 178.051 113.065 178.16C112.847 178.192 112.668 178.301 112.533 178.474C112.289 178.795 112.027 179.077 111.751 179.314C111.668 179.391 111.674 179.404 111.777 179.353C111.873 179.295 111.969 179.308 112.059 179.391C112.212 179.526 112.193 179.622 111.995 179.68L111.257 179.904L98.7258 179.911C99.1296 178.507 100.001 177.897 101.347 178.083C102.097 178.18 102.841 177.846 103.27 177.218C103.931 176.256 104.719 175.282 105.649 174.301C105.719 174.23 105.745 174.14 105.726 174.038C105.693 173.865 105.738 173.711 105.86 173.583L109.809 169.396C109.95 169.249 110.039 169.069 110.072 168.87C110.104 168.697 110.193 168.556 110.341 168.447C111.104 167.915 111.648 167.216 111.988 166.364C112.071 166.158 112.212 166.017 112.424 165.934L113.45 165.543C113.668 165.46 113.809 165.299 113.866 165.075C113.969 164.658 114.219 164.35 114.616 164.152C114.834 164.043 114.988 163.831 115.02 163.587C115.161 162.536 116.244 162.19 116.815 161.401C117.219 160.837 117.565 160.222 117.853 159.555C117.949 159.324 117.873 159.202 117.629 159.189L116.655 159.132C124.776 157.144 131.757 153.74 137.609 148.918C143.666 143.937 148.032 137.59 150.717 129.877C151.358 130.698 152.217 130.621 153.301 129.653C154.269 128.787 154.769 128.338 154.794 128.319C155.993 127.402 157.224 126.524 158.474 125.684C158.595 125.601 158.691 125.485 158.756 125.351C158.89 125.049 159.121 124.883 159.448 124.844C159.672 124.825 159.832 124.709 159.929 124.511C160.332 123.722 160.973 123.261 161.852 123.113C162.07 123.075 162.255 122.934 162.345 122.735C162.666 122.049 163.198 121.638 163.935 121.51C164.172 121.472 164.377 121.363 164.544 121.183C164.896 120.805 165.243 120.472 165.582 120.177C165.928 119.882 166.3 119.632 166.704 119.427C167.781 118.882 168.787 118.241 169.723 117.51C169.947 117.337 170.114 117.099 170.217 116.804C170.287 116.606 170.415 116.465 170.601 116.381C171.903 115.772 173.031 114.919 173.986 113.81C174.12 113.65 174.293 113.547 174.492 113.49C175.409 113.24 175.986 112.663 176.223 111.746C176.268 111.579 176.377 111.496 176.55 111.502C177.152 111.522 177.569 111.207 177.813 110.618C178.171 109.765 178.684 109.002 179.345 108.329C179.595 108.079 179.678 108.124 179.588 108.476C179.582 108.515 179.575 108.553 179.575 108.592C179.588 108.745 179.665 108.797 179.806 108.739C179.851 108.72 179.902 108.675 179.947 108.617Z" fill="#0072B1"/>
<path d="M179.948 119.552L179.929 143.004C178.967 143.575 178.051 144.254 177.179 145.043C176.147 145.979 175.256 146.678 174.506 147.133C172.372 148.441 170.231 149.768 168.083 151.121C167.833 151.281 167.596 151.48 167.372 151.704C166.833 152.256 166.077 152.435 165.5 152.948C164.487 153.852 163.417 154.698 162.295 155.487C161.16 156.275 160.109 157.102 159.128 157.974C158.013 158.962 156.846 159.917 155.629 160.84C154.981 161.334 154.372 161.885 153.815 162.494C153.289 163.071 152.738 163.597 152.167 164.071C151.353 164.745 150.603 165.495 149.904 166.315C149.199 167.149 148.398 167.893 147.507 168.553C146.828 169.053 146.27 169.681 145.834 170.431C145.661 170.733 145.417 170.951 145.103 171.092C144.879 171.188 144.738 171.355 144.674 171.592C144.603 171.855 144.475 172.079 144.289 172.265L138.45 178.247C138.392 178.305 138.347 178.369 138.309 178.446C138.238 178.567 138.232 178.676 138.283 178.766C138.405 178.978 138.309 179.106 138.007 179.151C137.642 179.209 137.495 179.459 137.552 179.914H111.258L111.996 179.689C112.194 179.632 112.214 179.535 112.06 179.401C111.97 179.318 111.874 179.305 111.778 179.362C111.675 179.414 111.669 179.401 111.752 179.324C112.028 179.087 112.29 178.805 112.534 178.484C112.669 178.311 112.848 178.202 113.066 178.17C113.829 178.061 114.399 177.695 114.79 177.067C114.995 176.74 115.239 176.439 115.521 176.17C117.893 173.926 120.245 171.451 122.585 168.739C123.194 168.027 123.822 167.373 124.469 166.764C125.143 166.123 125.739 165.469 126.245 164.796C126.969 163.841 127.758 162.885 128.604 161.924C128.944 161.533 129.245 161.116 129.508 160.68C129.771 160.244 130.091 159.879 130.476 159.577C131.104 159.09 131.629 158.487 132.046 157.769C132.149 157.596 132.283 157.442 132.444 157.32L133.347 156.634C133.52 156.5 133.649 156.333 133.732 156.128C134.29 154.73 135.091 153.91 136.136 153.666C136.437 153.595 136.681 153.448 136.879 153.217C137.328 152.685 137.751 152.172 138.148 151.666C138.61 151.089 139.11 150.653 139.648 150.364C140.809 149.736 141.277 148.806 142.347 148.133C143.244 147.569 144.014 146.825 144.648 145.902C144.776 145.716 144.943 145.569 145.142 145.472C146.385 144.863 147.481 143.927 148.43 142.658C148.545 142.498 148.687 142.369 148.86 142.273C149.674 141.818 150.462 141.113 151.238 140.17C151.924 139.33 153.007 138.465 154.481 137.561C155.071 137.195 155.59 136.772 156.045 136.291C156.539 135.766 157.071 135.336 157.654 135.009C158.289 134.65 158.904 134.24 159.494 133.785C160.077 133.342 160.686 132.945 161.321 132.605C161.75 132.368 161.968 131.848 162.391 131.509C164.122 130.124 165.891 128.854 167.705 127.694C168.66 127.085 169.59 126.405 170.481 125.662C171.365 124.931 172.288 124.245 173.25 123.603C173.455 123.469 173.679 123.379 173.923 123.347C174.628 123.238 175.077 122.866 175.269 122.231C175.327 122.02 175.461 121.885 175.673 121.828C176.391 121.629 177.032 121.398 177.455 120.718C177.852 120.064 178.256 119.417 178.673 118.776C178.794 118.59 178.961 118.519 179.185 118.551C179.512 118.603 179.769 118.936 179.948 119.552Z" fill="#0780C3"/>
<path d="M15.6084 121.268C15.0315 125.801 15.2879 129.539 16.3776 132.495C16.8263 133.7 17.7045 134.918 19.0185 136.149C19.8069 136.886 21.0056 137.758 22.6273 138.771C25.8516 140.791 29.1079 142.753 32.4026 144.65C30.8834 144.74 30.2168 145.606 30.3899 147.247C30.4091 147.446 30.3514 147.606 30.2104 147.741L29.3258 148.606C29.1784 148.747 29.1079 148.92 29.1079 149.119V149.779C29.1079 149.997 29.0309 150.183 28.8771 150.337L27.3964 151.837C27.2554 151.978 27.1849 152.152 27.1849 152.35V153.613C27.1849 153.812 27.1208 153.979 26.9926 154.126L26.1721 155.062C26.0503 155.197 26.0567 155.332 26.1913 155.46L26.3836 155.658C26.5823 155.857 26.5567 156.024 26.3003 156.152C25.9349 156.332 25.7939 156.633 25.89 157.05C25.9477 157.313 25.8452 157.434 25.5759 157.415C25.0311 157.37 24.7362 157.627 24.7042 158.197C24.685 158.473 24.5696 158.736 24.3773 158.941C23.9478 159.39 23.826 159.96 23.9991 160.653C24.0568 160.89 23.9799 161.14 23.794 161.3C23.435 161.615 23.1914 162.006 23.0632 162.48C22.3838 165.051 21.5312 167.609 20.512 170.154C20.3646 170.52 20.2813 170.885 20.2556 171.264C20.2236 171.744 20.0697 172.18 19.8069 172.584C19.6659 172.796 19.6082 173.033 19.6339 173.283C19.7557 174.367 19.698 175.412 19.4544 176.425C19.2941 177.111 19.3518 177.739 19.6275 178.316C19.8839 178.848 20.2877 179.387 20.8454 179.932C18.2942 179.957 15.8904 179.951 13.6405 179.912C12.2624 179.893 11.2816 179.893 10.256 178.931C7.01255 175.892 3.87805 173.052 0.846117 170.417C0.314086 169.956 0.00640649 169.282 0.00640649 168.571L0 161.845C0.10897 161.942 0.205118 162.006 0.288449 162.031C0.435879 162.076 0.583314 161.948 0.564084 161.794C0.461524 161.063 0.487157 160.345 0.647408 159.646C0.660228 159.601 0.711514 159.582 0.743564 159.614C0.858944 159.71 0.961498 159.71 1.05765 159.614C1.10252 159.563 1.13457 159.499 1.1538 159.428C1.6602 156.832 1.85249 154.351 1.73711 151.998C1.69865 151.171 1.75635 150.35 1.9166 149.529C2.06403 148.741 2.09607 147.965 1.99992 147.202C1.99351 147.17 2.01275 147.157 2.0448 147.157C2.10249 147.151 2.16018 147.138 2.20505 147.112C2.2371 147.093 2.25633 147.061 2.25633 147.016C2.24351 143.118 2.35888 139.643 2.60246 136.585C2.62169 136.38 2.6922 136.2 2.8204 136.04C3.40371 135.309 3.48704 134.54 3.07039 133.738C2.98065 133.572 2.98706 133.405 3.08962 133.245C3.41012 132.738 3.7755 132.392 4.18574 132.206C4.28189 132.161 4.30112 132.091 4.24342 132.001C3.98702 131.597 3.99985 131.193 4.27548 130.802C4.65367 130.27 5.15365 129.93 5.7626 129.789C6.04465 129.725 6.18566 129.552 6.18566 129.263V128.302C6.18566 127.532 6.55745 127.039 7.2946 126.827C8.41635 126.513 8.8971 125.808 8.74326 124.711C8.69839 124.397 8.833 124.237 9.1535 124.237H10.0573C10.3265 124.237 10.5188 124.115 10.6342 123.871C10.7047 123.724 10.7111 123.564 10.6663 123.391C10.615 123.185 10.6855 123.038 10.8778 122.955C11.2624 122.781 11.4098 122.493 11.3265 122.083C11.2624 121.768 11.3906 121.627 11.7111 121.672C12.4098 121.756 12.6982 121.454 12.5764 120.768C12.5316 120.525 12.7623 120.32 12.9995 120.384C13.3777 120.493 13.6597 120.371 13.8456 120.018C13.9802 119.768 14.1854 119.666 14.461 119.723C14.8007 119.794 15.0443 119.672 15.1917 119.358C15.2879 119.153 15.4353 119.108 15.634 119.217C15.6917 119.249 15.743 119.294 15.7814 119.351C15.8391 119.428 15.8327 119.531 15.775 119.601C15.2494 120.268 15.1917 120.826 15.6084 121.268Z" fill="#0069A4"/>
<path d="M179.929 143.026C180.045 154.996 180.019 163.19 179.852 167.607C179.807 168.768 179.275 170.076 178.256 171.531C175.743 175.128 170.731 180.013 166.199 180C156.642 179.968 147.091 179.949 137.553 179.936C137.495 179.481 137.642 179.231 138.008 179.173C138.309 179.128 138.405 179 138.283 178.788C138.232 178.699 138.238 178.59 138.309 178.468C138.347 178.391 138.392 178.327 138.45 178.269L144.29 172.287C144.475 172.102 144.604 171.877 144.674 171.614C144.738 171.377 144.879 171.21 145.104 171.114C145.418 170.973 145.661 170.755 145.834 170.454C146.27 169.704 146.828 169.075 147.507 168.575C148.398 167.915 149.2 167.171 149.905 166.338C150.603 165.517 151.353 164.767 152.167 164.094C152.738 163.619 153.289 163.094 153.815 162.517C154.372 161.908 154.981 161.356 155.629 160.863C156.847 159.939 158.013 158.984 159.129 157.997C160.109 157.125 161.161 156.298 162.295 155.509C163.417 154.721 164.487 153.874 165.5 152.97C166.077 152.457 166.834 152.278 167.372 151.726C167.596 151.502 167.834 151.303 168.083 151.143C170.231 149.79 172.372 148.463 174.506 147.155C175.256 146.7 176.147 146.001 177.179 145.065C178.051 144.277 178.968 143.597 179.929 143.026Z" fill="#469FD0"/>
<path d="M32.4027 144.653L40.614 148.916C40.0627 149.044 39.6268 149.237 39.3127 149.493C38.9986 149.743 38.8384 150.083 38.832 150.506C38.8127 151.333 38.4794 152 37.832 152.506C37.6846 152.622 37.5948 152.795 37.5948 152.987V153.269C37.5948 153.385 37.55 153.475 37.4538 153.532C36.9026 153.872 36.7487 154.468 36.9923 155.315C37.1654 155.917 36.6269 156.475 36.0436 156.302C35.9859 156.283 35.9347 156.295 35.8898 156.34C35.7167 156.52 35.6398 156.731 35.6526 156.981C35.6718 157.424 35.6847 157.86 35.6782 158.289C35.6718 158.552 35.5436 158.725 35.2936 158.802C34.768 158.963 34.4924 159.322 34.4668 159.879C34.4475 160.328 34.3514 160.751 34.1847 161.155C33.7488 162.194 33.2104 163.232 32.5758 164.278C32.5245 164.361 32.4925 164.457 32.4732 164.553C32.454 164.669 32.454 164.784 32.4604 164.906C32.4732 165.079 32.4476 165.246 32.3771 165.406C31.9989 166.31 31.5374 167.246 30.9989 168.214C30.813 168.547 30.6977 168.894 30.64 169.253C30.5823 169.657 30.422 170.028 30.172 170.368C30.0438 170.541 29.9605 170.74 29.9285 170.958C29.8515 171.465 29.7233 171.958 29.5439 172.439C29.3323 173.022 29.249 173.555 29.3067 174.035C29.4285 175.093 29.5823 176.151 29.7618 177.215C29.8067 177.472 29.9477 177.651 30.1849 177.76C32.9412 178.998 35.6141 177.991 38.4602 178.427C40.7165 178.767 42.787 178.748 44.6715 178.357C45.9279 178.094 47.197 177.959 48.4726 177.953C58.0941 177.908 67.2283 177.914 75.8626 177.972C77.4395 177.985 78.9651 177.78 80.5035 177.837C81.4073 177.869 81.9521 177.312 82.8559 177.248C83.0931 177.228 83.2534 177.113 83.3303 176.888C83.8046 175.542 85.1571 175.382 85.9007 174.253C86.5289 173.305 87.4712 172.42 88.3045 171.65C88.6826 171.304 88.9647 170.894 89.157 170.413C89.5288 169.509 90.4903 168.836 91.1505 168.073C92.5671 166.445 93.9581 164.867 95.3362 163.335C95.3811 163.284 95.4196 163.284 95.458 163.341C95.4901 163.406 95.5542 163.412 95.6375 163.361C96.3747 162.918 96.6054 162.309 96.3298 161.521L105.329 161.11C105.618 161.232 105.554 161.348 105.15 161.469C105.105 161.482 105.079 161.508 105.06 161.553C105.028 161.668 105.035 161.719 105.086 161.707C105.4 161.623 105.515 161.739 105.419 162.04C105.291 162.457 105.086 162.809 104.804 163.104C104.56 163.361 104.362 163.649 104.208 163.963C103.778 164.855 103.131 165.605 102.278 166.214C101.657 166.65 101.118 167.156 100.663 167.733C99.7143 168.926 98.8489 170.125 98.0733 171.324C97.9002 171.586 97.6759 171.792 97.3938 171.952C97.0157 172.163 96.6888 172.452 96.4195 172.817C95.567 174.003 94.6119 175.068 93.5414 176.023C92.9902 176.517 92.5222 177.049 92.1312 177.632C91.9966 177.831 91.8107 177.959 91.5735 178.004L89.9903 178.293C89.7467 178.337 89.5672 178.472 89.4582 178.696C89.1826 179.261 88.7019 179.671 88.0032 179.934H20.8455C20.2878 179.389 19.884 178.85 19.6276 178.318C19.3519 177.741 19.2943 177.113 19.4545 176.427C19.6981 175.414 19.7558 174.369 19.634 173.285C19.6083 173.035 19.666 172.798 19.8071 172.587C20.0699 172.183 20.2237 171.747 20.2558 171.266C20.2814 170.888 20.3647 170.522 20.5122 170.157C21.5314 167.611 22.3839 165.053 23.0633 162.482C23.1915 162.008 23.4351 161.617 23.7941 161.303C23.98 161.142 24.0569 160.892 23.9992 160.655C23.8261 159.963 23.9479 159.392 24.3774 158.943C24.5697 158.738 24.6851 158.475 24.7043 158.2C24.7364 157.629 25.0312 157.373 25.5761 157.417C25.8453 157.437 25.9478 157.315 25.8902 157.052C25.794 156.635 25.935 156.334 26.3004 156.154C26.5568 156.026 26.5824 155.86 26.3837 155.661L26.1914 155.462C26.0568 155.334 26.0504 155.199 26.1722 155.065L26.9927 154.128C27.1209 153.981 27.185 153.814 27.185 153.616V152.353C27.185 152.154 27.2555 151.981 27.3965 151.84L28.8772 150.339C29.0311 150.186 29.108 150 29.108 149.782V149.121C29.108 148.922 29.1785 148.749 29.3259 148.608L30.2105 147.743C30.3515 147.608 30.4092 147.448 30.39 147.249C30.2169 145.608 30.8836 144.742 32.4027 144.653Z" fill="#005D90"/>
<path d="M40.6146 148.916C57.9857 157.148 77.0106 161.854 96.3304 161.521C96.6061 162.309 96.3753 162.918 95.6382 163.361C95.5548 163.412 95.4907 163.406 95.4587 163.341C95.4202 163.284 95.3817 163.284 95.3369 163.335C93.9587 164.867 92.5678 166.444 91.1511 168.073C90.4909 168.836 89.5294 169.509 89.1576 170.413C88.9653 170.894 88.6833 171.304 88.3051 171.65C87.4718 172.42 86.5295 173.305 85.9013 174.253C85.1578 175.382 83.8053 175.542 83.3309 176.888C83.254 177.113 83.0938 177.228 82.8566 177.247C81.9528 177.312 81.4079 177.869 80.5041 177.837C78.9657 177.78 77.4401 177.985 75.8633 177.972C67.229 177.914 58.0947 177.908 48.4733 177.953C47.1977 177.959 45.9285 178.094 44.6721 178.357C42.7876 178.748 40.7172 178.767 38.4608 178.427C35.6148 177.991 32.9418 178.998 30.1855 177.76C29.9483 177.651 29.8073 177.472 29.7624 177.215C29.583 176.151 29.4291 175.093 29.3073 174.035C29.2496 173.555 29.333 173.022 29.5445 172.439C29.724 171.958 29.8522 171.464 29.9291 170.958C29.9612 170.74 30.0445 170.541 30.1727 170.368C30.4227 170.028 30.5829 169.656 30.6406 169.253C30.6983 168.894 30.8137 168.547 30.9996 168.214C31.538 167.246 31.9995 166.31 32.3777 165.406C32.4482 165.246 32.4739 165.079 32.4611 164.906C32.4546 164.784 32.4547 164.669 32.4739 164.553C32.4931 164.457 32.5252 164.361 32.5764 164.277C33.211 163.232 33.7495 162.194 34.1854 161.155C34.352 160.751 34.4482 160.328 34.4674 159.879C34.493 159.322 34.7687 158.962 35.2943 158.802C35.5443 158.725 35.6725 158.552 35.6789 158.289C35.6853 157.86 35.6725 157.424 35.6532 156.981C35.6404 156.731 35.7173 156.52 35.8904 156.34C35.9353 156.295 35.9866 156.283 36.0443 156.302C36.6276 156.475 37.166 155.917 36.9929 155.314C36.7494 154.468 36.9032 153.872 37.4545 153.532C37.5506 153.474 37.5955 153.385 37.5955 153.269V152.987C37.5955 152.795 37.6852 152.622 37.8327 152.506C38.4801 152 38.8134 151.333 38.8326 150.506C38.839 150.083 38.9993 149.743 39.3134 149.493C39.6275 149.237 40.0633 149.044 40.6146 148.916Z" fill="#004D77"/>
<path d="M116.656 159.157L117.63 159.215C117.874 159.228 117.951 159.35 117.855 159.58C117.566 160.247 117.22 160.863 116.816 161.427C116.246 162.215 115.162 162.562 115.021 163.613C114.989 163.857 114.835 164.068 114.618 164.177C114.22 164.376 113.97 164.684 113.868 165.1C113.81 165.325 113.669 165.485 113.451 165.569L112.425 165.96C112.214 166.043 112.073 166.184 111.989 166.389C111.65 167.242 111.105 167.941 110.342 168.473C110.195 168.582 110.105 168.723 110.073 168.896C110.041 169.095 109.951 169.274 109.81 169.422L105.861 173.608C105.74 173.736 105.695 173.89 105.727 174.063C105.746 174.166 105.72 174.256 105.65 174.326C104.72 175.307 103.932 176.282 103.272 177.243C102.842 177.872 102.099 178.205 101.349 178.109C100.003 177.923 99.1309 178.532 98.7271 179.936H88.0032C88.7019 179.673 89.1826 179.263 89.4582 178.699C89.5672 178.474 89.7467 178.34 89.9903 178.295L91.5735 178.006C91.8107 177.962 91.9966 177.833 92.1312 177.635C92.5222 177.051 92.9902 176.519 93.5414 176.025C94.6119 175.07 95.567 174.006 96.4195 172.82C96.6887 172.454 97.0156 172.166 97.3938 171.954C97.6759 171.794 97.9002 171.589 98.0733 171.326C98.8489 170.127 99.7143 168.928 100.663 167.736C101.118 167.159 101.656 166.652 102.278 166.216C103.131 165.607 103.778 164.857 104.208 163.966C104.362 163.652 104.56 163.363 104.804 163.107C105.086 162.812 105.291 162.459 105.419 162.042C105.515 161.741 105.4 161.626 105.086 161.709C105.035 161.722 105.028 161.67 105.06 161.555C105.079 161.51 105.105 161.485 105.15 161.472C105.554 161.35 105.618 161.234 105.329 161.113C109.201 160.786 112.977 160.138 116.656 159.157Z" fill="#0069A4"/>
<path d="M0.838962 12.487L0.499878 169.479L11.4174 179.207L168.456 179.532L179.576 168.631L178.884 14.0904L166.1 1.09863L15.5275 1.10569" fill="#0090E1"/>
<mask id="mask0_643_479" style="mask-type:luminance" maskUnits="userSpaceOnUse" x="0" y="1" width="180" height="179">
<path d="M0.838962 12.487L0.499878 169.479L11.4174 179.207L168.456 179.532L179.576 168.631L178.884 14.0904L166.1 1.09863L15.5275 1.10569" fill="white"/>
</mask>
<g mask="url(#mask0_643_479)">
<g filter="url(#filter0_f_643_479)">
<path d="M256.892 2.95683L162.84 -27.603L19.7894 24.3423L-33.0523 156.198L-24.1858 232.665L105.862 221.322L194.158 195.903L219.302 161.191L244.983 115.826L256.892 2.95683Z" fill="#003E7F"/>
</g>
<g filter="url(#filter1_f_643_479)">
<path d="M289.944 52.2294L195.893 21.6694L52.8416 73.6149L0 205.47L8.86697 281.938L138.915 270.594L227.211 245.175L252.354 210.464L278.036 165.099L289.944 52.2294Z" fill="#0D3588"/>
</g>
<g opacity="0.900789" filter="url(#filter2_f_643_479)">
<path d="M299.815 95.9517L141.523 135.816L38.0484 256.497L413.173 445.125L299.815 95.9517Z" fill="#248CF6"/>
</g>
</g>
<path d="M100.689 15.4418C108.798 16.7176 115.778 20.3272 121.631 26.2704C126.592 31.2007 129.855 37.1888 131.412 44.2284C132.239 48.8381 132.476 53.4222 132.124 57.9806C131.63 63.9751 129.823 69.367 126.701 74.1563C126.547 74.3871 126.643 74.7012 126.893 74.8166C131.637 76.9452 135.951 79.8559 139.841 83.5488C147.424 90.7486 151.719 99.6667 152.726 110.297L152.911 115.336C153.02 120.138 152.29 124.991 150.719 129.909C148.033 137.621 143.668 143.969 137.611 148.95C131.758 153.771 124.778 157.176 116.656 159.163C112.977 160.144 109.202 160.792 105.33 161.119L96.3303 161.529C77.0105 161.863 57.9856 157.157 40.6144 148.925L32.4032 144.661C29.1085 142.763 25.8522 140.801 22.6279 138.782C21.0062 137.769 19.8075 136.897 19.0191 136.16C17.705 134.929 16.8269 133.711 16.3782 132.505C15.2885 129.55 15.0321 125.812 15.609 121.279C17.0384 114.361 22.1792 109.944 28.3777 107.162C28.8585 106.944 29.3777 106.809 29.9289 106.764C33.2045 106.482 36.4095 106.411 39.544 106.559C42.4541 106.693 44.2169 108.117 46.6783 109.386L58.7035 115.329C68.498 119.76 79.786 123.517 90.5741 124.139C99.9135 124.684 112.669 121.465 115.124 110.739C115.451 109.296 115.394 107.745 114.939 106.078C113.708 101.584 111.227 98.6858 107.497 97.3843C102.804 95.743 97.811 97.9934 95.5867 102.308C94.8624 103.719 94.4009 105.584 94.2086 107.905C94.0098 110.29 93.8368 112.425 93.6958 114.316C93.6765 114.586 93.5355 114.688 93.2727 114.631C88.4972 113.47 84.8756 110.925 82.3949 106.995C82.2731 106.802 82.1064 106.738 81.8885 106.809C75.9785 108.623 69.9595 109.579 63.8379 109.675C58.5881 109.688 53.4665 108.995 48.4667 107.597C47.3578 107.309 46.5437 106.995 46.0309 106.655C39.544 102.411 36.4672 96.4098 36.7941 88.6457C36.8453 85.9209 37.1274 83.0038 38.1658 80.4649C39.3773 77.5029 42.7297 75.4577 45.6783 74.6307C47.5052 74.1242 49.6269 74.2973 51.6076 74.3294C58.5753 75.5283 65.5045 75.6629 72.4081 74.7333C82.4077 73.4574 94.106 69.1683 99.5673 60.0963C102.567 55.1019 103.292 50.4473 100.016 45.4594C97.8943 42.0614 93.3945 39.1827 89.26 39.9585C81.4783 41.4203 78.9335 49.7998 81.209 56.615C81.2988 56.8779 81.0424 57.1279 80.7796 57.0253C78.3181 56.0829 76.0874 54.8263 74.0939 53.2683C66.6327 46.8955 66.4211 35.4129 71.6709 27.6104C76.3887 20.6029 83.1128 16.5125 91.8368 15.352C93.8945 15.0763 96.8495 15.102 100.689 15.4418ZM114.355 73.1753C117.983 72.7073 121.105 72.9317 123.72 73.8613C123.97 73.9447 124.163 73.8806 124.31 73.6562C128.906 66.482 130.867 58.9487 130.194 51.0628C129.239 39.8623 124.56 31.0276 116.144 24.5586C104.727 15.7816 89.6959 14.2685 78.1835 23.6739C74.0683 27.0334 70.9723 32.4445 70.2864 37.8748C69.4082 44.8375 73.9144 51.2231 79.1578 55.3904C79.7604 55.8649 79.9142 55.7495 79.6258 55.0378C79.0425 53.5889 78.4848 51.7617 78.7476 50.2101C79.1002 48.0816 79.0232 45.7543 80.0809 43.8758C83.1 38.5031 88.9011 36.5669 94.6701 38.3557C100.651 40.2085 104.798 46.4339 104.33 52.7426C103.702 61.3016 97.5738 67.963 89.9523 71.7713C78.1579 77.676 64.0238 78.5287 50.9474 76.3938C49.4154 76.1437 48.0372 76.2079 46.8193 76.5925C44.1784 77.4196 41.1208 79.0096 40.108 81.7921C37.3453 89.383 38.8645 97.4099 44.9668 102.969C46.4604 104.328 48.2103 105.257 50.2038 105.764C56.5433 107.367 61.9405 107.969 66.4019 107.578C71.3953 107.136 76.3887 106.149 81.3949 104.61C81.6001 104.546 81.7154 104.334 81.6577 104.129C81.1001 102.09 81.1129 99.8462 81.6962 97.4035C81.8693 96.6727 82.0103 96.6791 82.1321 97.4164C82.6449 100.622 83.3692 104.61 85.3627 107.162C86.9717 109.226 89.0421 111.207 91.574 113.111C92.0996 113.502 92.3368 113.374 92.2855 112.72C92.1381 110.829 92.1317 108.771 92.2727 106.533C92.4073 104.411 92.8112 102.68 93.4906 101.353C95.4521 97.5254 98.4712 95.3583 102.548 94.8518C112.746 93.5888 118.778 102.783 117.099 111.855C116.291 116.195 112.766 120.401 108.952 122.497C101.279 126.722 91.6381 126.895 82.9077 125.382C69.1454 122.991 54.8447 116.836 42.2618 109.579C39.4286 107.944 34.8967 108.341 31.6212 108.675C30.4033 108.796 29.1021 109.245 27.7175 110.015C19.9934 114.31 15.9231 120.446 17.9166 129.601C18.423 131.941 20.0127 134.204 21.9549 135.519C42.0246 149.11 65.6904 158.343 90.0805 159.529C104.689 160.234 119.874 157.92 131.893 150.162C142.88 143.077 150.514 130.569 150.847 117.278C151.072 108.258 149.136 100.353 145.034 93.5568C141.405 87.5494 135.867 82.4076 128.419 78.1312C124.105 75.6565 119.009 74.8551 114.336 73.4125C113.983 73.3036 113.99 73.2266 114.355 73.1753Z" fill="#469FD0"/>
<path d="M114.336 73.4181C119.008 74.8607 124.104 75.6621 128.418 78.1368C135.867 82.4132 141.405 87.555 145.033 93.5624C149.135 100.358 151.071 108.263 150.847 117.284C150.514 130.575 142.879 143.083 131.893 150.168C119.874 157.925 104.688 160.24 90.08 159.534C65.6899 158.348 42.0242 149.116 21.9544 135.524C20.0122 134.21 18.4225 131.947 17.9161 129.607C15.9226 120.451 19.993 114.316 27.717 110.02C29.1016 109.251 30.4028 108.802 31.6207 108.68C34.8962 108.347 39.4281 107.949 42.2613 109.584C54.8442 116.842 69.1449 122.997 82.9072 125.388C91.6377 126.901 101.278 126.728 108.951 122.503C112.765 120.406 116.291 116.201 117.098 111.86C118.778 102.788 112.746 93.5944 102.548 94.8575C98.4707 95.3639 95.4516 97.531 93.4902 101.358C92.8107 102.686 92.4069 104.417 92.2723 106.539C92.1312 108.776 92.1376 110.834 92.2851 112.726C92.3364 113.38 92.0992 113.508 91.5736 113.117C89.0416 111.213 86.9712 109.232 85.3623 107.167C83.3688 104.615 82.6444 100.628 82.1316 97.422C82.0098 96.6847 81.8688 96.6783 81.6957 97.4091C81.1124 99.8518 81.0996 102.096 81.6573 104.135C81.715 104.34 81.5996 104.551 81.3945 104.615C76.3883 106.154 71.3948 107.141 66.4014 107.584C61.9401 107.975 56.5428 107.372 50.2033 105.769C48.2098 105.263 46.4599 104.333 44.9664 102.974C38.864 97.4156 37.3449 89.3886 40.1076 81.7977C41.1204 79.0152 44.1779 77.4252 46.8189 76.5981C48.0368 76.2135 49.4149 76.1493 50.9469 76.3994C64.0233 78.5343 78.1574 77.6817 89.9518 71.7769C97.5733 67.9686 103.701 61.3072 104.329 52.7482C104.797 46.4395 100.65 40.2141 94.6696 38.3613C88.9006 36.5725 83.0995 38.5087 80.0804 43.8814C79.0228 45.7599 79.0997 48.0872 78.7471 50.2157C78.4843 51.7673 79.042 53.5945 79.6253 55.0434C79.9138 55.7551 79.7599 55.8705 79.1574 55.396C73.914 51.2287 69.4077 44.8431 70.2859 37.8804C70.9718 32.4501 74.0678 27.039 78.183 23.6795C89.6954 14.2741 104.727 15.7872 116.143 24.5642C124.559 31.0332 129.239 39.8679 130.194 51.0684C130.867 58.9543 128.905 66.4876 124.309 73.6618C124.162 73.8862 123.97 73.9503 123.72 73.8669C121.104 72.9373 117.983 72.7129 114.355 73.1809C113.989 73.2322 113.983 73.3092 114.336 73.4181ZM120.624 56.9989C120.797 56.3129 120.989 55.5115 121.207 54.5946C122.643 48.536 122.008 43.1056 119.303 38.2908C118.964 36.5533 118.489 34.9633 117.88 33.5272C117.233 32.0077 116.31 30.7511 115.105 29.7638C107.797 23.7564 98.7848 20.7174 89.3942 23.0832C89.0096 23.1794 89.016 23.2435 89.407 23.2755C92.2338 23.5063 95.5285 25.1861 96.1119 28.1225C96.5349 30.2446 95.4452 31.4884 93.7273 32.636C93.4325 32.8348 93.4581 32.963 93.8107 33.0271C103.714 34.8223 110.502 44.3558 109.24 54.3125C108.605 59.2941 106.515 63.8718 102.971 68.0327C93.8555 78.7139 77.6318 82.2914 64.1195 82.5158C61.2606 82.5606 58.1518 82.208 55.1519 81.9772C52.1199 81.74 49.2034 81.0412 46.1522 81.2271C45.9279 81.2399 45.7356 81.3168 45.5689 81.4643C44.101 82.7466 42.8575 84.234 41.8447 85.9201C41.5114 86.4715 41.7293 87.0165 41.4601 87.6127C41.2742 88.023 41.2101 88.4654 41.2678 88.9398C41.396 89.9592 41.5498 91.0235 41.7293 92.1327C41.7614 92.3442 41.8831 92.4789 42.0947 92.5366C47.524 93.9663 52.3571 94.851 56.5941 95.1973C65.1323 95.8961 73.4973 95.0883 81.6893 92.7674C81.9521 92.6969 82.1637 92.4917 82.2406 92.2352C86.3238 79.3999 98.1951 72.8219 111.368 73.1104C111.63 73.1168 111.848 73.0206 112.022 72.8219C115.348 69.1098 117.951 65.0001 119.829 60.5058C120.284 59.4287 120.547 58.2619 120.624 56.9989ZM89.9967 108.552C90.0031 108.116 89.9262 107.815 89.7531 107.654C89.2339 107.154 88.8493 106.411 88.5993 105.423C86.2276 96.1718 88.8557 88.0487 97.9643 84.2981C100.496 83.253 103.265 82.7978 106.278 82.9197C114.739 83.2595 121.592 88.3308 124.457 96.2872C126.963 103.237 124.572 110.995 120.81 117.22C119.739 118.99 118.182 120.067 116.861 121.612C108.06 131.889 91.1184 131.703 78.933 129.203C65.363 126.42 51.2482 120.535 38.8063 113.373C36.1782 111.86 31.281 112.739 28.6978 113.604C26.0761 114.482 24.0825 116.457 22.7236 119.528C22.5505 119.919 22.6467 120.227 22.9993 120.458C48.4534 137.204 78.2407 150.059 108.631 146.321C114.227 145.635 119.521 144.128 124.502 141.807C130.271 139.121 135.348 136.268 139.501 131.19C143.475 126.337 145.629 120.163 145.956 112.681C146.078 109.783 145.552 106.821 144.373 103.801C140.565 94.0496 134.207 86.7408 125.29 81.8874C119.964 78.9895 114.303 77.6496 108.297 77.8676C99.2528 78.2074 92.4261 82.0028 87.8237 89.2604C84.7405 94.1137 84.138 100.237 87.2019 105.289C87.9968 106.603 89.1506 107.545 89.8877 108.879C90.048 109.167 90.1185 109.148 90.0993 108.821C90.0929 108.719 90.0608 108.629 89.9967 108.552Z" fill="#002235"/>
<path d="M119.304 38.2526C115.811 33.3543 111.311 30.2769 105.805 29.0267C105.253 28.9049 104.785 29.4307 104.971 29.9628C105.234 30.7065 105.971 31.2386 106.491 31.8541C110.33 36.3548 112.945 41.6121 114.33 47.6259C115.599 53.146 114.503 57.8775 113.112 63.2181C112.862 64.1862 113.093 64.8081 113.798 65.0902C114.349 65.3082 114.977 65.1222 115.311 64.635L120.625 56.9607C120.548 58.2237 120.285 59.3906 119.83 60.4677C117.952 64.962 115.349 69.0716 112.022 72.7837C111.849 72.9825 111.631 73.0786 111.369 73.0722C98.1959 72.7837 86.3246 79.3617 82.2414 92.1971C82.1645 92.4535 81.953 92.6587 81.6902 92.7292C73.4982 95.0501 65.1331 95.8579 56.595 95.1591C52.3579 94.8129 47.5248 93.9281 42.0955 92.4984C41.884 92.4407 41.7622 92.306 41.7302 92.0945C41.5507 90.9853 41.3968 89.9211 41.2686 88.9017C41.2109 88.4272 41.275 87.9849 41.4609 87.5745C41.7301 86.9783 41.5122 86.4333 41.8455 85.882C42.8583 84.1958 44.1019 82.7084 45.5697 81.4261C45.7364 81.2787 45.9287 81.2017 46.1531 81.1889C49.2042 81.003 52.1208 81.7018 55.1527 81.939C58.1526 82.1698 61.2615 82.5224 64.1203 82.4776C77.6326 82.2532 93.8564 78.6757 102.971 67.9945C106.516 63.8336 108.606 59.2559 109.24 54.2744C110.503 44.3176 103.715 34.7841 93.8115 32.9889C93.459 32.9248 93.4333 32.7966 93.7282 32.5978C95.4461 31.4502 96.5358 30.2064 96.1127 28.0843C95.5294 25.1479 92.2346 23.4682 89.4078 23.2374C89.0168 23.2053 89.0104 23.1412 89.395 23.045C98.7857 20.6793 107.798 23.7182 115.106 29.7256C116.311 30.7129 117.234 31.9695 117.881 33.489C118.49 34.9251 118.964 36.5151 119.304 38.2526Z" fill="#0166BC"/>
<path d="M119.302 38.2531C122.007 43.068 122.641 48.4983 121.206 54.557C120.988 55.4738 120.795 56.2752 120.622 56.9612L115.308 64.6355C114.975 65.1228 114.347 65.3087 113.796 65.0907C113.091 64.8086 112.86 64.1867 113.11 63.2186C114.501 57.878 115.597 53.1465 114.328 47.6264C112.943 41.6126 110.328 36.3554 106.488 31.8547C105.969 31.2392 105.232 30.707 104.969 29.9633C104.783 29.4312 105.251 28.9055 105.802 29.0273C111.309 30.2775 115.808 33.3549 119.302 38.2531Z" fill="#3EB7FA"/>
<path d="M89.997 108.55C90.0611 108.627 90.0932 108.716 90.0996 108.819C90.1188 109.146 90.0483 109.165 89.8881 108.877C89.1509 107.543 87.9971 106.601 87.2023 105.286C84.1383 100.234 84.7408 94.1116 87.824 89.2582C92.4264 82.0007 99.2531 78.2052 108.298 77.8654C114.304 77.6474 119.964 78.9874 125.291 81.8853C134.207 86.7386 140.566 94.0475 144.373 103.799C145.553 106.819 146.078 109.781 145.956 112.679C145.63 120.161 143.476 126.335 139.502 131.188C135.348 136.266 130.271 139.119 124.502 141.805C119.522 144.126 114.227 145.633 108.631 146.319C78.2411 150.056 48.4537 137.202 22.9996 120.456C22.647 120.225 22.5509 119.917 22.7239 119.526C24.0829 116.455 26.0764 114.48 28.6981 113.602C31.2813 112.736 36.1785 111.858 38.8067 113.371C51.2485 120.532 65.3633 126.418 78.9333 129.2C91.1188 131.701 108.06 131.887 116.861 121.61C118.182 120.064 119.739 118.987 120.81 117.218C124.573 110.992 126.964 103.235 124.457 96.285C121.592 88.3286 114.74 83.2573 106.278 82.9175C103.266 82.7957 100.497 83.2509 97.9647 84.2959C88.856 88.0465 86.2279 96.1696 88.5996 105.421C88.8496 106.408 89.2342 107.152 89.7534 107.652C89.9265 107.812 90.0034 108.114 89.997 108.55ZM127.534 92.7716C128.226 93.8808 128.906 95.0733 129.566 96.3427C135.707 108.037 133.104 120.815 122.662 128.649C118.637 131.669 114.618 133.868 110.605 135.234C105.817 136.868 100.368 138.074 94.2597 138.837C93.7405 138.901 93.3366 139.151 93.0482 139.58C92.6315 140.202 92.9649 141.049 93.6956 141.222C95.9519 141.754 98.3236 142.158 100.811 142.446C106.336 143.081 111.791 142.209 117.259 140.638C124.425 138.58 131.213 135.509 135.361 129.451C139.553 123.328 141.296 116.57 140.585 109.191C139.796 100.933 134.707 93.8615 127.867 89.1557C126.162 87.9824 125.521 88.3799 125.938 90.3482C126.021 90.7392 126.265 91.1624 126.669 91.6112C126.976 91.9446 127.265 92.3292 127.534 92.7716Z" fill="#0166BC"/>
<path d="M126.667 91.5923C126.263 91.1435 126.02 90.7203 125.936 90.3293C125.52 88.361 126.161 87.9635 127.866 89.1368C134.705 93.8426 139.795 100.914 140.583 109.172C141.295 116.551 139.551 123.309 135.359 129.432C131.212 135.49 124.424 138.561 117.257 140.619C111.79 142.19 106.335 143.062 100.809 142.427C98.3221 142.139 95.9504 141.735 93.6941 141.203C92.9633 141.03 92.63 140.183 93.0466 139.561C93.3351 139.132 93.7389 138.882 94.2581 138.818C100.367 138.055 105.815 136.849 110.604 135.215C114.616 133.849 118.635 131.65 122.661 128.63C133.103 120.796 135.705 108.018 129.564 96.3238C128.904 95.0544 128.225 93.8619 127.532 92.7527C127.263 92.3103 126.975 91.9257 126.667 91.5923Z" fill="#3EB7FA"/>
<defs>
<filter id="filter0_f_643_479" x="-119.68" y="-114.231" width="463.2" height="433.524" filterUnits="userSpaceOnUse" color-interpolation-filters="sRGB">
<feFlood flood-opacity="0" result="BackgroundImageFix"/>
<feBlend mode="normal" in="SourceGraphic" in2="BackgroundImageFix" result="shape"/>
<feGaussianBlur stdDeviation="43.314" result="effect1_foregroundBlur_643_479"/>
</filter>
<filter id="filter1_f_643_479" x="-86.628" y="-64.9586" width="463.2" height="433.525" filterUnits="userSpaceOnUse" color-interpolation-filters="sRGB">
<feFlood flood-opacity="0" result="BackgroundImageFix"/>
<feBlend mode="normal" in="SourceGraphic" in2="BackgroundImageFix" result="shape"/>
<feGaussianBlur stdDeviation="43.314" result="effect1_foregroundBlur_643_479"/>
</filter>
<filter id="filter2_f_643_479" x="-58.1042" y="-0.200943" width="567.43" height="541.478" filterUnits="userSpaceOnUse" color-interpolation-filters="sRGB">
<feFlood flood-opacity="0" result="BackgroundImageFix"/>
<feBlend mode="normal" in="SourceGraphic" in2="BackgroundImageFix" result="shape"/>
<feGaussianBlur stdDeviation="48.0763" result="effect1_foregroundBlur_643_479"/>
</filter>
</defs>
</svg>
