<svg width="41" height="43" viewBox="0 0 41 43" fill="none" xmlns="http://www.w3.org/2000/svg">
<path d="M30.7366 6.67223C31.5229 8.07178 31.7072 9.65022 31.2901 11.4113C31.2267 11.6778 31.1706 11.9107 31.1203 12.1101L29.5757 14.3409C29.4789 14.4825 29.2963 14.5365 29.1362 14.4732C28.9312 14.3912 28.8641 14.2104 28.9368 13.929C29.3411 12.3766 29.6597 11.0013 29.2908 9.39678C28.8882 7.64874 28.1281 6.12062 27.0119 4.81239C26.8611 4.63348 26.6469 4.47879 26.5704 4.26261C26.5163 4.10795 26.6524 3.95514 26.8125 3.99054C28.4133 4.35394 29.721 5.24846 30.7366 6.67223Z" fill="#3EB7FA"/>
<path d="M30.7507 6.69799C29.7354 5.27419 28.4273 4.37968 26.8269 4.01628C26.6664 3.98087 26.5304 4.13371 26.5845 4.28838C26.6609 4.50455 26.8751 4.65922 27.0263 4.83812C28.1422 6.14635 28.9023 7.6745 29.3049 9.42255C29.6737 11.0271 29.3552 12.4024 28.9508 13.9548C28.8782 14.2362 28.9453 14.4169 29.1502 14.4989C29.3104 14.5623 29.4929 14.5082 29.59 14.3666L31.1347 12.1359C31.1123 12.503 31.0358 12.8422 30.9036 13.1553C30.3577 14.4617 29.6011 15.6562 28.634 16.7352C28.5837 16.793 28.5204 16.8209 28.4442 16.8191C24.6151 16.7352 21.1645 18.6473 19.9776 22.3781C19.9553 22.4527 19.8938 22.5123 19.8174 22.5328C17.4362 23.2074 15.0047 23.4422 12.5229 23.2391C11.2913 23.1385 9.88647 22.8813 8.30833 22.4657C8.24685 22.449 8.21145 22.4098 8.20215 22.3483C8.14997 22.0259 8.10523 21.7166 8.06797 21.4203C8.0512 21.2823 8.06983 21.1538 8.12387 21.0345C8.20212 20.8612 8.13878 20.7028 8.23566 20.5425C8.53005 20.0524 8.89153 19.62 9.31818 19.2473C9.36663 19.2045 9.42253 19.1821 9.48776 19.1784C10.3746 19.1243 11.2224 19.3275 12.1037 19.3964C12.9757 19.4635 13.8793 19.566 14.7103 19.553C18.638 19.4877 23.3538 18.4479 26.0031 15.3431C27.0336 14.1337 27.6411 12.8031 27.8254 11.3551C28.1925 8.46091 26.2194 5.68979 23.3407 5.16798C23.2383 5.14935 23.2308 5.11208 23.3165 5.0543C23.8159 4.72072 24.1326 4.35918 24.0096 3.74235C23.8401 2.88882 22.8824 2.40058 22.0607 2.33349C21.947 2.32416 21.9452 2.30553 22.057 2.27757C24.7866 1.58992 27.4062 2.47325 29.5304 4.21943C29.8807 4.50641 30.149 4.87167 30.337 5.31334C30.5141 5.73078 30.6518 6.19295 30.7507 6.69799Z" fill="#0166BC"/>
<path d="M25.3174 0.0807329C27.6745 0.451572 29.7034 1.50078 31.4047 3.2283C32.8467 4.6614 33.7952 6.40198 34.2478 8.44819C34.4881 9.7881 34.557 11.1206 34.4547 12.4456C34.3111 14.188 33.7859 15.7553 32.8784 17.1474C32.8336 17.2145 32.8615 17.3058 32.9342 17.3393C34.3132 17.958 35.5671 18.8041 36.6978 19.8775C38.902 21.9703 40.1504 24.5626 40.4431 27.6525L40.4969 29.1172C40.5286 30.513 40.3164 31.9236 39.8598 33.3531C39.079 35.5948 37.8102 37.44 36.0496 38.8878C34.3483 40.2892 32.3194 41.2789 29.9586 41.8565C28.8892 42.1416 27.7919 42.33 26.6665 42.425L24.0505 42.5442C18.4348 42.6413 12.9048 41.2734 7.85544 38.8806L5.46867 37.6411C4.511 37.0894 3.56448 36.5191 2.62727 35.9323C2.15588 35.6378 1.80746 35.3844 1.57829 35.1701C1.19632 34.8123 0.941079 34.4583 0.810654 34.1077C0.493909 33.2488 0.41938 32.1623 0.587069 30.8446C1.00256 28.8338 2.49684 27.5499 4.29857 26.7412C4.43833 26.6779 4.58924 26.6386 4.74946 26.6255C5.70159 26.5436 6.63319 26.5229 7.5443 26.566C8.39019 26.6049 8.90258 27.0188 9.61804 27.3877L13.1134 29.1151C15.9604 30.4031 19.2415 31.4952 22.3773 31.676C25.092 31.8344 28.7997 30.8987 29.5133 27.781C29.6083 27.3615 29.5918 26.9107 29.4595 26.4261C29.1017 25.1199 28.3805 24.2774 27.2963 23.8991C25.9322 23.422 24.4809 24.0762 23.8343 25.3303C23.6238 25.7404 23.4897 26.2825 23.4338 26.9572C23.376 27.6505 23.3257 28.271 23.2847 28.8207C23.2791 28.8992 23.2381 28.9288 23.1617 28.9123C21.7736 28.5748 20.7209 27.835 19.9999 26.6927C19.9645 26.6366 19.916 26.618 19.8527 26.6386C18.1348 27.1659 16.3852 27.4438 14.6059 27.4717C13.0799 27.4755 11.5912 27.274 10.1379 26.8677C9.81556 26.784 9.57892 26.6927 9.42986 26.5939C7.5443 25.3602 6.64996 23.6159 6.74499 21.3591C6.75987 20.567 6.84187 19.7191 7.1437 18.9811C7.49585 18.1202 8.4703 17.5257 9.32737 17.2853C9.8584 17.1381 10.4751 17.1884 11.0509 17.1977C13.0762 17.5462 15.0903 17.5853 17.097 17.3151C20.0036 16.9442 23.4039 15.6975 24.9914 13.0605C25.8633 11.6088 26.0741 10.2559 25.1218 8.80601C24.5051 7.81831 23.1971 6.98155 21.9954 7.20705C19.7334 7.63196 18.9937 10.0676 19.6552 12.0486C19.6813 12.125 19.6067 12.1977 19.5303 12.1679C18.8148 11.894 18.1664 11.5287 17.587 11.0758C15.4182 9.22344 15.3567 5.88577 16.8827 3.6178C18.254 1.58092 20.2085 0.391955 22.7444 0.0546306C23.3425 -0.0255077 24.2014 -0.0180375 25.3174 0.0807329ZM29.2898 16.8622C30.3443 16.7262 31.2518 16.7914 32.0119 17.0616C32.0846 17.0859 32.1407 17.0673 32.1834 17.002C33.5193 14.9167 34.0893 12.727 33.8937 10.4348C33.6161 7.17909 32.2561 4.61109 29.8098 2.73073C26.4912 0.179503 22.1221 -0.260313 18.7757 2.47357C17.5796 3.45009 16.6796 5.02294 16.4803 6.60138C16.225 8.62524 17.5348 10.4814 19.0589 11.6927C19.2341 11.8306 19.2788 11.7971 19.195 11.5902C19.0254 11.169 18.8633 10.6379 18.9397 10.1869C19.0422 9.56821 19.0198 8.89173 19.3272 8.3457C20.2048 6.78401 21.891 6.22121 23.5679 6.74116C25.3064 7.27972 26.5118 9.08927 26.3758 10.923C26.1932 13.4109 24.4119 15.3472 22.1966 16.4541C18.7683 18.1705 14.6599 18.4183 10.859 17.7978C10.4136 17.7251 10.013 17.7437 9.65903 17.8555C8.89139 18.0959 8.00264 18.5581 7.70824 19.3669C6.9052 21.5734 7.34679 23.9066 9.12056 25.5224C9.55471 25.9175 10.0634 26.1875 10.6428 26.3349C12.4855 26.8008 14.0543 26.9758 15.3511 26.8622C16.8026 26.7337 18.254 26.4468 19.7092 25.9994C19.7688 25.9808 19.8023 25.9192 19.7856 25.8596C19.6235 25.2669 19.6272 24.6147 19.7968 23.9047C19.8471 23.6923 19.8881 23.6941 19.9235 23.9085C20.0725 24.8402 20.2831 25.9994 20.8625 26.7412C21.3302 27.3412 21.932 27.917 22.668 28.4704C22.8207 28.5841 22.8897 28.5469 22.8748 28.3568C22.8319 27.8071 22.8301 27.2089 22.8711 26.5584C22.9102 25.9416 23.0276 25.4384 23.2251 25.0527C23.7952 23.9401 24.6728 23.3102 25.8578 23.163C28.8221 22.7959 30.5754 25.4684 30.0874 28.1054C29.8525 29.3669 28.8279 30.5894 27.7193 31.1987C25.4889 32.4268 22.6866 32.4771 20.1489 32.0373C16.1486 31.3423 11.9918 29.5532 8.33429 27.4438C7.51076 26.9685 6.19346 27.0839 5.24137 27.181C4.88736 27.2162 4.50914 27.3467 4.10667 27.5705C1.86149 28.819 0.678369 30.6025 1.25782 33.2636C1.40502 33.9438 1.8671 34.6016 2.43164 34.9838C8.26534 38.9343 15.1443 41.6181 22.2338 41.9629C26.4801 42.1678 30.894 41.4952 34.3876 39.2401C37.5812 37.1807 39.8002 33.545 39.897 29.6817C39.9624 27.0598 39.3996 24.762 38.2073 22.7866C37.1524 21.0404 35.5427 19.5458 33.3778 18.3028C32.1238 17.5835 30.6426 17.3505 29.2842 16.9312C29.1816 16.8995 29.1837 16.8772 29.2898 16.8622Z" fill="#469FD0"/>
<path d="M32.9091 22.1602C32.7917 22.0297 32.7211 21.9067 32.6967 21.7931C32.5757 21.2209 32.7621 21.1054 33.2577 21.4465C35.2456 22.8143 36.7251 24.8698 36.9541 27.2701C37.1611 29.415 36.6542 31.3794 35.4357 33.1591C34.2302 34.92 32.2572 35.8127 30.1739 36.4109C28.5848 36.8675 26.9992 37.121 25.3929 36.9364C24.6701 36.8527 23.9807 36.7353 23.3248 36.5806C23.1124 36.5304 23.0155 36.2842 23.1366 36.1034C23.2205 35.9787 23.3379 35.906 23.4888 35.8874C25.2645 35.6656 26.8481 35.315 28.2401 34.8401C29.4063 34.443 30.5745 33.8038 31.7447 32.926C34.7799 30.6489 35.5362 26.9347 33.7512 23.5355C33.5594 23.1665 33.362 22.8199 33.1606 22.4975C33.0824 22.3689 32.9987 22.2571 32.9091 22.1602Z" fill="#3EB7FA"/>
<path d="M22.2248 27.1155L22.2546 27.1937L22.1931 27.2106C21.9788 26.8228 21.6435 26.549 21.4124 26.1668C20.5218 24.6983 20.6969 22.9187 21.5931 21.5079C22.9309 19.3984 24.9153 18.2951 27.5444 18.1964C29.2901 18.133 30.9353 18.5225 32.4837 19.3648C35.0754 20.7756 36.9238 22.9 38.0304 25.7345C38.3733 26.6124 38.5259 27.4733 38.4905 28.3157C38.3957 30.4905 37.7696 32.2851 36.6145 33.6957C35.407 35.1718 33.9313 36.0011 32.2544 36.7818C30.8069 37.4565 29.2678 37.8945 27.6412 38.0939C18.8077 39.1801 10.1493 35.4438 2.7505 30.5763C2.64801 30.5091 2.62008 30.4196 2.67037 30.3059C3.06539 29.4133 3.64484 28.8392 4.4069 28.584C5.15776 28.3323 6.58124 28.0771 7.34519 28.5168C10.9617 30.5983 15.0644 32.3092 19.0089 33.1179C22.5508 33.8449 27.4752 33.8989 30.0334 30.9117C30.4174 30.4623 30.8699 30.1493 31.1812 29.6351C32.275 27.8253 32.97 25.5706 32.2413 23.5504C31.4086 21.2377 29.4169 19.7636 26.9572 19.6649C26.0817 19.6295 25.2768 19.7618 24.5408 20.0655C21.8931 21.1557 21.1292 23.5169 21.8186 26.206C21.8913 26.4929 22.003 26.7092 22.154 26.8545C22.154 26.8545 22.2266 26.9888 22.2248 27.1155ZM33.1357 22.5292C33.3369 22.8516 33.5345 23.1982 33.7264 23.5672C35.5114 26.9664 34.7548 30.6806 31.7196 32.9577C30.5496 33.8356 29.3814 34.4747 28.2149 34.8718C26.8232 35.3468 25.2393 35.6973 23.4638 35.9191C23.3129 35.9377 23.1955 36.0104 23.1117 36.1351C22.9905 36.3159 23.0875 36.5621 23.2999 36.6124C23.9557 36.767 24.6451 36.8844 25.3681 36.9681C26.9741 37.1527 28.5597 36.8992 30.1491 36.4426C32.232 35.8444 34.2051 34.9517 35.4108 33.1909C36.6293 31.4111 37.136 29.4467 36.9293 27.3018C36.7 24.9015 35.2207 22.846 33.2325 21.4781C32.7369 21.1371 32.5506 21.2526 32.6718 21.8248C32.6959 21.9384 32.7669 22.0614 32.8843 22.1919C32.9735 22.2888 33.0575 22.4006 33.1357 22.5292Z" fill="#0166BC"/>
<path d="M29.2857 16.9327C30.6438 17.352 32.125 17.5849 33.379 18.3043C35.5442 19.5473 37.1539 21.0419 38.2085 22.7881C39.4008 24.7634 39.9636 27.0611 39.8985 29.6833C39.8017 33.5466 37.5824 37.1823 34.3891 39.2417C30.8955 41.4965 26.4813 42.1694 22.2352 41.9642C15.1457 41.6194 8.26673 38.9359 2.433 34.9851C1.86846 34.6032 1.40638 33.9454 1.25918 33.2652C0.679729 30.6038 1.86288 28.8206 4.10803 27.5718C4.51049 27.3483 4.88872 27.2178 5.24273 27.1823C6.19482 27.0855 7.51212 26.9698 8.33565 27.4451C11.9931 29.5548 16.15 31.3439 20.1503 32.0389C22.688 32.4787 25.4902 32.4284 27.7205 31.2003C28.8291 30.5907 29.854 29.3685 30.0886 28.1067C30.5769 25.4697 28.8236 22.7974 25.8593 23.1645C24.6741 23.3117 23.7966 23.9416 23.2265 25.054C23.0289 25.44 22.9116 25.9432 22.8724 26.56C22.8314 27.2102 22.8333 27.8084 22.8762 28.3584C22.8911 28.5485 22.8221 28.5857 22.6694 28.472C21.9334 27.9186 21.3316 27.3428 20.8639 26.7425C20.2844 26.0007 20.0739 24.8418 19.9248 23.9099C19.8894 23.6956 19.8484 23.6938 19.7981 23.9062C19.6286 24.6162 19.6249 25.2685 19.787 25.8612C19.8037 25.9208 19.7702 25.9821 19.7106 26.0007C18.2554 26.4481 16.8039 26.735 15.3525 26.8637C14.0557 26.9774 12.4869 26.8021 10.6442 26.3362C10.0647 26.1891 9.55607 25.9188 9.12195 25.5237C7.34815 23.9081 6.90659 21.5749 7.70963 19.3684C8.00402 18.5596 8.89275 18.0974 9.66042 17.857C10.0144 17.7452 10.415 17.7266 10.8603 17.7993C14.6613 18.4198 18.7696 18.172 22.1979 16.4556C24.4133 15.3487 26.1945 13.4124 26.377 10.9245C26.513 9.09075 25.3076 7.2812 23.5693 6.74264C21.8924 6.22269 20.2062 6.78549 19.3286 8.34718C19.0212 8.89321 19.0435 9.56969 18.9411 10.1884C18.8647 10.6394 19.0268 11.1705 19.1963 11.5917C19.2802 11.7985 19.2354 11.8321 19.0603 11.6942C17.5362 10.4828 16.2263 8.62672 16.4816 6.60286C16.681 5.02442 17.5809 3.45157 18.7771 2.47506C22.1234 -0.258832 26.4927 0.180984 29.811 2.73221C32.2573 4.61257 33.6176 7.18057 33.8952 10.4362C34.0908 12.7285 33.5205 14.9182 32.1846 17.0035C32.1419 17.0687 32.0861 17.0874 32.0134 17.0631C31.253 16.7929 30.3458 16.7277 29.2913 16.8637C29.1849 16.8786 29.1831 16.901 29.2857 16.9327ZM31.1135 12.1601C31.1638 11.9607 31.2196 11.7277 31.283 11.4612C31.7004 9.70014 31.5158 8.12168 30.7295 6.72215C30.631 6.21711 30.4929 5.75494 30.3159 5.33751C30.1278 4.89583 29.8595 4.53057 29.5093 4.24359C27.385 2.49741 24.7655 1.61406 22.0359 2.30173C21.9241 2.32969 21.9259 2.34832 22.0396 2.35762C22.8613 2.42471 23.8189 2.91298 23.9885 3.76651C24.1115 4.38335 23.7947 4.74488 23.2954 5.07846C23.2097 5.13624 23.2171 5.17351 23.3196 5.19214C26.1982 5.71395 28.1713 8.48508 27.8045 11.3792C27.6199 12.8272 27.0124 14.1578 25.9823 15.3673C23.3326 18.472 18.6169 19.5119 14.6892 19.5771C13.8582 19.5901 12.9546 19.4877 12.0826 19.4206C11.2013 19.3516 10.3535 19.1485 9.46663 19.2025C9.40143 19.2063 9.34553 19.2286 9.29708 19.2715C8.8704 19.6442 8.50895 20.0766 8.21456 20.5667C8.11768 20.7269 8.18101 20.8854 8.10276 21.0586C8.04873 21.1779 8.0301 21.3065 8.04687 21.4444C8.08413 21.7407 8.12884 22.0501 8.18101 22.3725C8.19034 22.434 8.22572 22.4731 8.28723 22.4899C9.86537 22.9055 11.2702 23.1626 12.5018 23.2633C14.9836 23.4664 17.4151 23.2316 19.7963 22.557C19.8727 22.5365 19.9342 22.4768 19.9565 22.4023C21.1434 18.6714 24.594 16.7594 28.423 16.8432C28.4992 16.8451 28.5626 16.8171 28.6131 16.7594C29.5799 15.6804 30.3365 14.4858 30.8824 13.1794C31.0147 12.8663 31.0911 12.5272 31.1135 12.1601ZM22.211 27.1451C22.2129 27.0184 22.1905 26.9309 22.1402 26.8841C21.9893 26.7388 21.8775 26.5228 21.8048 26.2356C21.1154 23.5465 21.8793 21.1854 24.527 20.0952C25.2628 19.7914 26.0677 19.6591 26.9435 19.6945C29.4029 19.7933 31.3949 21.2674 32.2276 23.5801C32.9561 25.6002 32.2611 27.8552 31.1676 29.6647C30.8562 30.1792 30.4037 30.4922 30.0197 30.9413C27.4615 33.9285 22.537 33.8745 18.9951 33.1478C15.0507 32.3388 10.9479 30.6282 7.33138 28.5464C6.56746 28.1067 5.14399 28.3622 4.39312 28.6136C3.63107 28.8688 3.05158 29.4429 2.65659 30.3355C2.60627 30.4492 2.63424 30.5387 2.73673 30.6059C10.1355 35.4735 18.7939 39.21 27.6275 38.1235C29.2541 37.9241 30.7929 37.4861 32.2407 36.8114C33.9176 36.0307 35.3933 35.2014 36.6005 33.7254C37.7556 32.3147 38.3817 30.5201 38.4768 28.3453C38.5123 27.5029 38.3594 26.642 38.0167 25.7641C36.9098 22.9297 35.0617 20.8052 32.4698 19.3945C30.9216 18.5521 29.2762 18.1627 27.5304 18.226C24.9015 18.3248 22.9172 19.428 21.5794 21.5376C20.6832 22.9483 20.508 24.7282 21.3986 26.1967C21.6297 26.5786 21.9651 26.8524 22.1793 27.2402C22.2259 27.3239 22.2464 27.3184 22.2408 27.2233C22.239 27.1937 22.2296 27.1675 22.211 27.1451Z" fill="#002235"/>
</svg>